<svg width="60" height="60" viewBox="0 0 60 60" fill="none" xmlns="http://www.w3.org/2000/svg">
<g id="Group 28">
<path id="Vector" d="M30 18C31.8 18 33 16.8 33 15C33 13.2 31.8 12 30 12C20.1 12 12 20.1 12 30C12 39.9 20.1 48 30 48C39.9 48 48 39.9 48 30C48 28.2 46.8 27 45 27C43.2 27 42 28.2 42 30C42 36.6 36.6 42 30 42C23.4 42 18 36.6 18 30C18 23.4 23.4 18 30 18Z" fill="#1E1E1E"/>
<path id="Vector_2" d="M57 27C55.2 27 54 28.2 54 30C54 43.2 43.2 54 30 54C16.8 54 6 43.2 6 30C6 16.8 16.8 6 30 6C31.8 6 33 4.8 33 3C33 1.2 31.8 0 30 0C13.5 0 0 13.5 0 30C0 46.5 13.5 60 30 60C46.5 60 60 46.5 60 30C60 28.2 58.8 27 57 27Z" fill="#1E1E1E"/>
<path id="Vector_3" d="M57 6H54V3C54 1.2 52.8 0 51 0C49.2 0 48 1.2 48 3V7.8L31.5 24.3C30.9 24 30.6 24 30 24C26.7 24 24 26.7 24 30C24 33.3 26.7 36 30 36C33.3 36 36 33.3 36 30C36 29.4 36 29.1 35.7 28.5L52.2 12H57C58.8 12 60 10.8 60 9C60 7.2 58.8 6 57 6Z" fill="#2E3192"/>
</g>
</svg>
