<svg width="66" height="60" viewBox="0 0 66 60" fill="none" xmlns="http://www.w3.org/2000/svg">
<path d="M18.1034 60C17.2448 60 16.5517 59.3069 16.5517 58.4483V55.3448C16.5517 53.9172 15.3931 52.7586 13.9655 52.7586H5.68966C4.26207 52.7586 3.10345 53.9172 3.10345 55.3448V58.4483C3.10345 59.3069 2.41034 60 1.55172 60C0.693103 60 0 59.3069 0 58.4483V55.3448C0 52.2052 2.55 49.6552 5.68966 49.6552H13.9655C17.1052 49.6552 19.6552 52.2052 19.6552 55.3448V58.4483C19.6552 59.3069 18.9621 60 18.1034 60ZM9.82759 46.5517C6.11897 46.5517 3.10345 43.5362 3.10345 39.8276C3.10345 36.119 6.11897 33.1035 9.82759 33.1035C13.5362 33.1035 16.5517 36.119 16.5517 39.8276C16.5517 43.5362 13.5362 46.5517 9.82759 46.5517ZM9.82759 36.2069C7.83104 36.2069 6.2069 37.831 6.2069 39.8276C6.2069 41.8241 7.83104 43.4483 9.82759 43.4483C11.8241 43.4483 13.4483 41.8241 13.4483 39.8276C13.4483 37.831 11.8241 36.2069 9.82759 36.2069ZM63.6207 60C62.7621 60 62.069 59.3069 62.069 58.4483V55.3448C62.069 53.9172 60.9103 52.7586 59.4828 52.7586H51.2069C49.7793 52.7586 48.6207 53.9172 48.6207 55.3448V58.4483C48.6207 59.3069 47.9276 60 47.069 60C46.2103 60 45.5172 59.3069 45.5172 58.4483V55.3448C45.5172 52.2052 48.0672 49.6552 51.2069 49.6552H59.4828C62.6224 49.6552 65.1724 52.2052 65.1724 55.3448V58.4483C65.1724 59.3069 64.4793 60 63.6207 60ZM55.3448 46.5517C51.6362 46.5517 48.6207 43.5362 48.6207 39.8276C48.6207 36.119 51.6362 33.1035 55.3448 33.1035C59.0535 33.1035 62.069 36.119 62.069 39.8276C62.069 43.5362 59.0535 46.5517 55.3448 46.5517ZM55.3448 36.2069C53.3483 36.2069 51.7241 37.831 51.7241 39.8276C51.7241 41.8241 53.3483 43.4483 55.3448 43.4483C57.3414 43.4483 58.9655 41.8241 58.9655 39.8276C58.9655 37.831 57.3414 36.2069 55.3448 36.2069ZM21.2069 30C17.4983 30 14.4828 26.9845 14.4828 23.2759C14.4828 19.5672 17.4983 16.5517 21.2069 16.5517C24.9155 16.5517 27.931 19.5672 27.931 23.2759C27.931 26.9845 24.9155 30 21.2069 30ZM21.2069 19.6552C19.2103 19.6552 17.5862 21.2793 17.5862 23.2759C17.5862 25.2724 19.2103 26.8966 21.2069 26.8966C23.2034 26.8966 24.8276 25.2724 24.8276 23.2759C24.8276 21.2793 23.2034 19.6552 21.2069 19.6552ZM43.9655 30C40.2569 30 37.2414 26.9845 37.2414 23.2759C37.2414 19.5672 40.2569 16.5517 43.9655 16.5517C47.6741 16.5517 50.6897 19.5672 50.6897 23.2759C50.6897 26.9845 47.6741 30 43.9655 30ZM43.9655 19.6552C41.969 19.6552 40.3448 21.2793 40.3448 23.2759C40.3448 25.2724 41.969 26.8966 43.9655 26.8966C45.9621 26.8966 47.5862 25.2724 47.5862 23.2759C47.5862 21.2793 45.9621 19.6552 43.9655 19.6552ZM32.5862 13.4483C28.8776 13.4483 25.8621 10.4328 25.8621 6.72414C25.8621 3.01552 28.8776 0 32.5862 0C36.2948 0 39.3103 3.01552 39.3103 6.72414C39.3103 10.4328 36.2948 13.4483 32.5862 13.4483ZM32.5862 3.10345C30.5897 3.10345 28.9655 4.72759 28.9655 6.72414C28.9655 8.72069 30.5897 10.3448 32.5862 10.3448C34.5828 10.3448 36.2069 8.72069 36.2069 6.72414C36.2069 4.72759 34.5828 3.10345 32.5862 3.10345Z" fill="#1E1E1E"/>
</svg>
