<svg width="38" height="50" viewBox="0 0 38 50" fill="none" xmlns="http://www.w3.org/2000/svg">
<g id="Group 21">
<path id="Vector" d="M18.75 50C18.3356 49.9999 17.9383 49.8352 17.6453 49.5422C16.925 48.8219 0 31.7469 0 18.75C7.41006e-08 13.7772 1.97544 9.00805 5.49175 5.49175C9.00805 1.97544 13.7772 0 18.75 0C23.7228 0 28.4919 1.97544 32.0083 5.49175C35.5246 9.00805 37.5 13.7772 37.5 18.75C37.5 31.7469 20.575 48.8219 19.8547 49.5422C19.5617 49.8352 19.1644 49.9999 18.75 50ZM18.75 3.125C14.6074 3.12955 10.6358 4.77721 7.70648 7.70648C4.77721 10.6358 3.12955 14.6074 3.125 18.75C3.125 28.6781 15.0172 42.1875 18.75 46.1766C22.4813 42.1875 34.375 28.6688 34.375 18.75C34.3705 14.6074 32.7228 10.6358 29.7935 7.70648C26.8642 4.77721 22.8926 3.12955 18.75 3.125Z" fill="white"/>
<path id="Vector_2" d="M18.75 26.5625C17.2048 26.5625 15.6944 26.1043 14.4096 25.2459C13.1249 24.3874 12.1235 23.1673 11.5322 21.7397C10.9409 20.3122 10.7862 18.7413 11.0876 17.2259C11.3891 15.7104 12.1331 14.3183 13.2257 13.2257C14.3183 12.1331 15.7104 11.3891 17.2259 11.0876C18.7413 10.7862 20.3122 10.9409 21.7397 11.5322C23.1673 12.1235 24.3874 13.1249 25.2459 14.4096C26.1043 15.6944 26.5625 17.2048 26.5625 18.75C26.56 20.8212 25.7361 22.8069 24.2715 24.2715C22.8069 25.7361 20.8212 26.56 18.75 26.5625ZM18.75 14.0625C17.8229 14.0625 16.9166 14.3374 16.1458 14.8525C15.3749 15.3676 14.7741 16.0996 14.4193 16.9562C14.0645 17.8127 13.9717 18.7552 14.1526 19.6645C14.3334 20.5738 14.7799 21.409 15.4354 22.0646C16.091 22.7201 16.9262 23.1666 17.8355 23.3474C18.7448 23.5283 19.6873 23.4355 20.5438 23.0807C21.4004 22.7259 22.1325 22.1251 22.6475 21.3542C23.1626 20.5834 23.4375 19.6771 23.4375 18.75C23.4375 17.5068 22.9436 16.3145 22.0646 15.4354C21.1855 14.5564 19.9932 14.0625 18.75 14.0625Z" fill="white"/>
</g>
</svg>
