<svg width="250" height="54" viewBox="0 0 250 54" fill="none" xmlns="http://www.w3.org/2000/svg">
<path fill-rule="evenodd" clip-rule="evenodd" d="M29.3697 39.3351H17.9753L27.0758 0H54.2268L51.6697 11.1312H35.9131L29.3697 39.3351Z" fill="#030304"/>
<path fill-rule="evenodd" clip-rule="evenodd" d="M29.3697 39.3351H17.9753L27.0758 0L27.8655 4.66306H29.7458L33.0175 23.7289L29.3697 39.3351Z" fill="#C7C9C8"/>
<path fill-rule="evenodd" clip-rule="evenodd" d="M9.2133 43.9982H20.6453L29.7458 4.66309H2.55716L0 15.7943H15.719L9.2133 43.9982Z" fill="#2E3192"/>
<path fill-rule="evenodd" clip-rule="evenodd" d="M2.55716 4.66309L0 15.7943H4.47503L2.55716 4.66309ZM9.2133 43.9982H20.5701L15.7566 15.7943L9.2133 43.9982Z" fill="#2E3192"/>
<path d="M234.845 39.3352H237.365L242.028 19.4796H249.473L250 17.1856H232.589L232.062 19.4796H239.508L234.845 39.3352ZM212.545 31.25L220.254 19.9308L222.623 31.25H212.545ZM204.498 39.3352H207.055L211.078 33.4687H223.15L224.353 39.3352H227.061L222.21 16.9976H219.878L204.498 39.3352ZM184.717 39.3352H200.887L201.414 37.0412H187.726L189.568 29.2946H201.677L202.204 27.0006H190.095L191.862 19.442H205.4L205.927 17.148H189.907L184.717 39.3352ZM160.236 39.3352H162.756L165.087 29.3698H177.873L175.541 39.3352H178.061L183.288 17.148H180.769L178.437 27.0006H165.651L167.983 17.148H165.463L160.236 39.3352ZM144.743 34.2584C141.396 34.2584 139.741 31.4757 140.493 28.2792C141.245 25.0075 144.141 22.3 147.525 22.3C150.91 22.3 152.565 25.0828 151.813 28.2792C151.023 31.5133 148.127 34.2584 144.743 34.2584ZM143.389 39.7864C150.233 39.7864 156.588 34.6345 158.055 28.2416C159.559 21.8111 155.686 16.6968 148.842 16.6968C141.998 16.6968 135.642 21.8487 134.176 28.2416C132.671 34.7097 136.545 39.7864 143.389 39.7864ZM104.43 39.3352H110.447L113.418 26.6622L117.028 35.2738H117.14L124.85 26.587L121.841 39.3352H127.971L133.198 17.148H126.692L119.397 25.722L116.125 17.148H109.619L104.43 39.3352ZM90.1398 27.8279L91.3808 22.5256H95.4046C97.4729 22.5256 98.5258 23.4281 98.1121 25.158C97.7361 26.8502 96.2695 27.8656 94.2012 27.8656H90.1398V27.8279ZM81.265 39.3352H87.4322L89.0117 32.6038H91.7192L94.6149 39.3352H101.722L98.2626 31.5885C101.309 30.4227 103.64 28.1664 104.43 24.7819C104.956 22.5256 104.693 20.8334 103.715 19.5172C102.587 18.013 100.444 17.148 97.0592 17.148H86.5673L81.265 39.3352ZM59.7547 39.3352H77.7301L78.971 34.108H67.0502L67.8775 30.6107H78.5198L79.6479 25.7597H69.0056L69.7954 22.4128H81.5282L82.7692 17.1856H64.9443L59.7547 39.3352ZM35.2361 39.3352H41.3657L43.3588 30.9116H51.2559L49.2629 39.3352H55.3925L60.6197 17.148H54.49L52.5345 25.4588H44.6374L46.5929 17.148H40.4632L35.2361 39.3352Z" fill="#030304"/>
<path fill-rule="evenodd" clip-rule="evenodd" d="M23.353 43.9982H236.5L237.026 41.8171H23.8419L23.353 43.9982Z" fill="#2E3192"/>
<path d="M227.888 53.2866H228.715V49.8646L231.348 53.2866H232.062V48.5108H231.235V51.82L228.678 48.5108H227.888V53.2866ZM224.391 52.5721C223.451 52.5721 222.774 51.7824 222.774 50.8799C222.774 49.9398 223.451 49.1877 224.391 49.1877C225.331 49.1877 226.008 49.9774 226.008 50.8799C226.008 51.82 225.331 52.5721 224.391 52.5721ZM224.353 53.3618C225.82 53.3618 226.873 52.2337 226.873 50.8799C226.873 49.5261 225.857 48.3979 224.391 48.3979C222.924 48.3979 221.871 49.5261 221.871 50.8799C221.871 52.2337 222.886 53.3618 224.353 53.3618ZM219.953 53.2866H220.781V48.5108H219.953V53.2866ZM216.644 53.2866H217.509V49.2629H219.013V48.4732H215.14V49.2629H216.644V53.2866ZM211.943 51.3688L212.771 49.4509L213.598 51.3688H211.943ZM210.289 53.2866H211.154L211.642 52.1209H213.899L214.388 53.2866H215.29L213.184 48.4732H212.395L210.289 53.2866ZM206.453 53.2866H209.8V52.5345H207.28V48.5108H206.453V53.2866ZM204.347 53.2866H205.174V48.5108H204.347V53.2866ZM201.038 53.2866H201.903V49.2629H203.407V48.4732H199.534V49.2629H201.038V53.2866ZM194.457 53.2866H195.284V49.8646L197.917 53.2866H198.631V48.5108H197.804V51.82L195.247 48.5108H194.457V53.2866ZM189.869 53.2866H193.442V52.5345H190.696V51.256H193.103V50.5038H190.696V49.2629H193.404V48.5108H189.869V53.2866ZM186.334 53.3242H187.086L189.079 48.5108H188.177L186.748 52.1961L185.319 48.5108H184.379L186.334 53.3242ZM175.278 53.3618C176.143 53.3618 176.82 53.0234 177.271 52.6097V50.6167H175.241V51.3312H176.482V52.2337C176.181 52.4593 175.767 52.6097 175.316 52.6097C174.338 52.6097 173.699 51.8952 173.699 50.9175C173.699 49.9774 174.376 49.2253 175.241 49.2253C175.842 49.2253 176.218 49.4133 176.594 49.7517L177.121 49.1124C176.632 48.6988 176.105 48.4732 175.278 48.4732C173.849 48.4732 172.796 49.6013 172.796 50.9551C172.796 52.3089 173.774 53.3618 175.278 53.3618ZM167.607 53.2866H168.434V49.8646L171.066 53.2866H171.781V48.5108H170.954V51.82L168.396 48.5108H167.607V53.2866ZM165.501 53.2866H166.328V48.5108H165.501V53.2866ZM160.048 53.2866H160.875V49.8646L163.508 53.2866H164.222V48.5108H163.395V51.82L160.838 48.5108H160.048V53.2866ZM156.513 52.5721C155.573 52.5721 154.896 51.7824 154.896 50.8799C154.896 49.9398 155.573 49.1877 156.513 49.1877C157.453 49.1877 158.13 49.9774 158.13 50.8799C158.13 51.82 157.491 52.5721 156.513 52.5721ZM156.513 53.3618C157.98 53.3618 159.033 52.2337 159.033 50.8799C159.033 49.5261 158.017 48.3979 156.551 48.3979C155.084 48.3979 154.031 49.5261 154.031 50.8799C154.031 52.2337 155.047 53.3618 156.513 53.3618ZM152.113 53.2866H152.941V48.5108H152.113V53.2866ZM148.804 53.2866H149.669V49.2629H151.173V48.4732H147.3V49.2629H148.804V53.2866ZM145.495 53.2866H146.322V48.5108H145.495V53.2866ZM140.945 52.4969V49.2253H141.885C142.9 49.2253 143.539 49.9022 143.539 50.8423C143.539 51.7824 142.9 52.4593 141.885 52.4593H140.945V52.4969ZM140.117 53.2866H141.885C143.389 53.2866 144.442 52.2337 144.442 50.8799C144.442 49.5261 143.389 48.4732 141.885 48.4732H140.117V53.2866ZM134.702 53.2866H135.529V49.8646L138.162 53.2866H138.876V48.5108H138.049V51.82L135.492 48.5108H134.702V53.2866ZM131.205 52.5721C130.265 52.5721 129.588 51.7824 129.588 50.8799C129.588 49.9398 130.265 49.1877 131.205 49.1877C132.145 49.1877 132.822 49.9774 132.822 50.8799C132.822 51.82 132.145 52.5721 131.205 52.5721ZM131.167 53.3618C132.634 53.3618 133.687 52.2337 133.687 50.8799C133.687 49.5261 132.671 48.3979 131.205 48.3979C129.738 48.3979 128.685 49.5261 128.685 50.8799C128.685 52.2337 129.701 53.3618 131.167 53.3618ZM126.203 53.3618C127.106 53.3618 127.632 53.0234 128.159 52.4969L127.632 51.9328C127.219 52.3089 126.843 52.5721 126.241 52.5721C125.338 52.5721 124.661 51.82 124.661 50.8799C124.661 49.9398 125.338 49.1877 126.241 49.1877C126.805 49.1877 127.181 49.4133 127.595 49.7893L128.121 49.1501C127.67 48.6988 127.143 48.3979 126.241 48.3979C124.774 48.3979 123.759 49.5261 123.759 50.8799C123.759 52.2713 124.812 53.3618 126.203 53.3618ZM117.817 50.8799V49.2629H119.058C119.698 49.2629 120.036 49.5261 120.036 50.0526C120.036 50.5414 119.66 50.8799 119.058 50.8799H117.817ZM116.99 53.2866H117.817V51.5944H118.87L120.074 53.249H121.051L119.773 51.444C120.45 51.256 120.901 50.7671 120.901 49.9774C120.901 49.0372 120.262 48.4356 119.133 48.4356H116.99V53.2866ZM114.846 53.2866H115.674V48.5108H114.846V53.2866ZM110.672 51.3688L111.5 49.4509L112.327 51.3688H110.672ZM109.018 53.2866H109.883L110.371 52.1209H112.628L113.117 53.2866H114.019L111.913 48.4732H111.124L109.018 53.2866ZM99.9547 53.3618C100.82 53.3618 101.497 53.0234 101.948 52.6097V50.6167H99.9171V51.3312H101.158V52.2337C100.857 52.4593 100.444 52.6097 99.9923 52.6097C99.0146 52.6097 98.3753 51.8952 98.3753 50.9175C98.3753 49.9774 99.0522 49.2253 99.9171 49.2253C100.519 49.2253 100.895 49.4133 101.271 49.7517L101.797 49.1124C101.309 48.6988 100.782 48.4732 99.9547 48.4732C98.5257 48.4732 97.4728 49.6013 97.4728 50.9551C97.4728 52.3089 98.4505 53.3618 99.9547 53.3618ZM92.2833 53.2866H93.1106V49.8646L95.743 53.2866H96.4575V48.5108H95.6301V51.82L93.073 48.5108H92.2833V53.2866ZM90.1398 53.2866H90.9671V48.5108H90.1398V53.2866ZM86.0032 52.5345V51.2183H87.3194C87.9963 51.2183 88.2971 51.444 88.2971 51.8576C88.2971 52.3089 87.9587 52.5345 87.357 52.5345H86.0032ZM86.0032 50.5038V49.2253H87.2065C87.733 49.2253 88.0339 49.4509 88.0339 49.827C88.0339 50.2782 87.6578 50.5038 87.1313 50.5038H86.0032ZM85.1759 53.2866H87.3946C88.4475 53.2866 89.162 52.8354 89.162 51.9705C89.162 51.2936 88.786 50.9927 88.2219 50.8047C88.5603 50.6167 88.8988 50.3158 88.8988 49.7517C88.8988 49.4133 88.786 49.1501 88.5603 48.962C88.2971 48.6988 87.8458 48.5484 87.3194 48.5484H85.1759V53.2866ZM79.2342 53.2866H80.0615V49.8646L81.5658 52.1209H81.6034L83.1076 49.8646V53.2866H83.9349V48.5108H83.0324L81.5658 50.7671L80.0991 48.5108H79.1966V53.2866H79.2342ZM76.0378 53.3618C77.2788 53.3618 78.1061 52.6473 78.1061 51.2183V48.5108H77.2788V51.256C77.2788 52.1209 76.8275 52.5721 76.0754 52.5721C75.3233 52.5721 74.872 52.0833 74.872 51.2183V48.5108H74.0447V51.256C73.9695 52.6473 74.7592 53.3618 76.0378 53.3618ZM69.9457 53.2866H73.2926V52.5345H70.773V48.5108H69.9457V53.2866ZM66.2228 50.9927V49.2629H67.2005C67.8398 49.2629 68.2159 49.5637 68.2159 50.1278C68.2159 50.6543 67.8022 50.9927 67.2005 50.9927H66.2228ZM65.3955 53.2866H66.2228V51.7448H67.1629C68.2159 51.7448 69.0808 51.1807 69.0808 50.1278C69.0808 49.1501 68.3663 48.5108 67.2757 48.5108H65.3955V53.2866ZM55.9189 53.3618C56.7839 53.3618 57.4608 53.0234 57.912 52.6097V50.6167H55.8813V51.3312H57.1223V52.2337C56.8215 52.4593 56.4078 52.6097 55.9566 52.6097C54.9788 52.6097 54.3395 51.8952 54.3395 50.9175C54.3395 49.9774 55.0164 49.2253 55.8813 49.2253C56.483 49.2253 56.8591 49.4133 57.2351 49.7517L57.7616 49.1124C57.2727 48.6988 56.7463 48.4732 55.9189 48.4732C54.4899 48.4732 53.437 49.6013 53.437 50.9551C53.437 52.3089 54.4147 53.3618 55.9189 53.3618ZM48.2475 53.2866H49.0748V49.8646L51.7072 53.2866H52.4216V48.5108H51.5943V51.82L49.0372 48.5108H48.2475V53.2866ZM46.1416 53.2866H46.9689V48.5108H46.1416V53.2866ZM42.8323 53.2866H43.6972V49.2629H45.2014V48.4732H41.3281V49.2629H42.8323V53.2866ZM38.1316 51.3688L38.959 49.4509L39.7863 51.3688H38.1316ZM36.477 53.2866H37.3419L37.8308 52.1209H40.0871L40.576 53.2866H41.4785L39.3726 48.4732H38.5829L36.477 53.2866ZM32.3028 53.2866H35.8753V52.5345H33.1301V51.256H35.5369V50.5038H33.1301V49.2629H35.8377V48.5108H32.3028V53.2866ZM27.0757 53.2866H27.903V51.256H30.1969V53.2866H31.0242V48.5108H30.1969V50.5038H27.903V48.5108H27.0757V53.2866Z" fill="#030304"/>
<path d="M173.511 53.8884H174.15V47.834H173.511V53.8884ZM101.685 53.8884H102.324V47.834H101.685V53.8884ZM59.6797 53.8884H60.319V47.834H59.6797V53.8884Z" fill="#2E3192"/>
</svg>
