<svg width="44" height="50" viewBox="0 0 44 50" fill="none" xmlns="http://www.w3.org/2000/svg">
<g id="Group">
<path id="Vector" fill-rule="evenodd" clip-rule="evenodd" d="M20.4538 22.7271C20.4538 21.8226 20.0946 20.9556 19.4555 20.3169C18.8165 19.6771 17.9495 19.3181 17.0453 19.3181H3.40853C2.50436 19.3181 1.63731 19.6771 0.998296 20.3169C0.357953 20.9556 0 21.8226 0 22.7271C0 28.0487 0 41.2692 0 46.5908C0 47.4953 0.357953 48.3624 0.998296 49.001C1.63731 49.6408 2.50436 49.9999 3.40853 49.9999H19.3177C19.9448 49.9999 20.4538 49.4908 20.4538 48.8635V22.7271ZM18.1815 22.7271V47.7271H3.40853C3.10758 47.7271 2.81856 47.6078 2.60512 47.3942C2.39167 47.1817 2.27235 46.8919 2.27235 46.5908V22.7271C2.27235 22.426 2.39167 22.1362 2.60512 21.9237C2.81856 21.7101 3.10758 21.5908 3.40853 21.5908H17.0453C17.3463 21.5908 17.6353 21.7101 17.8487 21.9237C18.0622 22.1362 18.1815 22.426 18.1815 22.7271Z" fill="#2E3192"/>
<path id="Vector_2" fill-rule="evenodd" clip-rule="evenodd" d="M37.4996 18.1818V3.40909C37.4996 2.50455 37.1397 1.6375 36.5014 0.998861C35.8613 0.359088 34.9939 0 34.0905 0C29.7363 0 20.2628 0 15.9086 0C15.0052 0 14.1378 0.359088 13.4976 0.998861C12.8594 1.6375 12.4995 2.50455 12.4995 3.40909C12.4995 7.55227 12.4995 15.9091 12.4995 15.9091C12.4995 16.5364 13.009 17.0455 13.6359 17.0455C14.2628 17.0455 14.7722 16.5364 14.7722 15.9091C14.7722 15.9091 14.7722 7.55227 14.7722 3.40909C14.7722 3.10795 14.8916 2.81818 15.1056 2.60568C15.3177 2.39204 15.6075 2.27273 15.9086 2.27273H34.0905C34.3916 2.27273 34.6814 2.39204 34.8935 2.60568C35.1075 2.81818 35.2268 3.10795 35.2268 3.40909V18.1818C35.2268 18.8091 35.7363 19.3182 36.3632 19.3182C36.9901 19.3182 37.4996 18.8091 37.4996 18.1818Z" fill="#2E3192"/>
<path id="Vector_3" fill-rule="evenodd" clip-rule="evenodd" d="M17.0444 50.0001H39.7717C40.6762 50.0001 41.5433 49.641 42.1819 49.0012C42.8217 48.3626 43.1808 47.4955 43.1808 46.591C43.1808 41.6433 43.1808 29.9478 43.1808 25.0001C43.1808 24.0955 42.8217 23.2285 42.1819 22.5899C41.5433 21.9501 40.6762 21.591 39.7717 21.591H34.4922C33.0978 21.591 31.8444 22.4399 31.3274 23.7342L27.924 32.2399C27.7524 32.6717 27.3342 32.9546 26.8694 32.9546H19.3172C18.6899 32.9546 18.6899 35.2274 19.3172 35.2274C19.3172 35.2274 24.2763 35.2274 26.8694 35.2274C28.2638 35.2274 29.5172 34.3785 30.0342 33.0842L33.4376 24.5785C33.6092 24.1467 34.0274 23.8637 34.4922 23.8637H39.7717C40.0728 23.8637 40.3626 23.983 40.5751 24.1967C40.7887 24.4092 40.9081 24.699 40.9081 25.0001V46.591C40.9081 46.8921 40.7887 47.1819 40.5751 47.3944C40.3626 47.608 40.0728 47.7274 39.7717 47.7274H17.0444C16.4172 47.7274 16.4172 50.0001 17.0444 50.0001Z" fill="#2E3192"/>
<path id="Vector_4" fill-rule="evenodd" clip-rule="evenodd" d="M14.7719 38.6366C14.7719 37.732 14.4127 36.865 13.773 36.2263C13.1333 35.5866 12.2662 35.2275 11.3629 35.2275H9.08942C8.18608 35.2275 7.31902 35.5866 6.6793 36.2263C6.03959 36.865 5.68042 37.732 5.68042 38.6366C5.68042 42.2411 5.68042 48.8638 5.68042 48.8638C5.68042 49.4911 6.18954 50.0002 6.81716 50.0002H13.6352C14.2628 50.0002 14.7719 49.4911 14.7719 48.8638V38.6366ZM12.4984 38.6366V47.7275H7.9539V38.6366C7.9539 38.3354 8.07361 38.0457 8.28645 37.8332C8.49929 37.6195 8.78831 37.5002 9.08942 37.5002H11.3629C11.664 37.5002 11.953 37.6195 12.1659 37.8332C12.3787 38.0457 12.4984 38.3354 12.4984 38.6366Z" fill="#2E3192"/>
<path id="Vector_5" fill-rule="evenodd" clip-rule="evenodd" d="M11.3628 24.2044C11.3628 24.1135 11.3265 24.0272 11.2628 23.9635C11.1992 23.8999 11.1128 23.8635 11.0219 23.8635C10.5924 23.8635 9.86055 23.8635 9.431 23.8635C9.34009 23.8635 9.25372 23.8999 9.19008 23.9635C9.12645 24.0272 9.09009 24.1135 9.09009 24.2044C9.09009 24.634 9.09009 25.3658 9.09009 25.7953C9.09009 25.8862 9.12645 25.9726 9.19008 26.0363C9.25372 26.0999 9.34009 26.1363 9.431 26.1363C9.86055 26.1363 10.5924 26.1363 11.0219 26.1363C11.1128 26.1363 11.1992 26.0999 11.2628 26.0363C11.3265 25.9726 11.3628 25.8862 11.3628 25.7953V24.2044Z" fill="#2E3192"/>
<path id="Vector_6" fill-rule="evenodd" clip-rule="evenodd" d="M26.1355 4.88638C26.1355 4.79547 26.0992 4.7091 26.0355 4.64547C25.9719 4.58183 25.8855 4.54547 25.7946 4.54547C25.3651 4.54547 24.6333 4.54547 24.2037 4.54547C24.1128 4.54547 24.0264 4.58183 23.9628 4.64547C23.8992 4.7091 23.8628 4.79547 23.8628 4.88638C23.8628 5.31593 23.8628 6.04774 23.8628 6.47729C23.8628 6.56819 23.8992 6.65456 23.9628 6.7182C24.0264 6.78184 24.1128 6.8182 24.2037 6.8182C24.6333 6.8182 25.3651 6.8182 25.7946 6.8182C25.8855 6.8182 25.9719 6.78184 26.0355 6.7182C26.0992 6.65456 26.1355 6.56819 26.1355 6.47729V4.88638Z" fill="#2E3192"/>
<path id="Vector_7" fill-rule="evenodd" clip-rule="evenodd" d="M26.1355 9.43192C26.1355 9.34101 26.0992 9.25464 26.0355 9.191C25.9719 9.12736 25.8855 9.091 25.7946 9.091C25.3651 9.091 24.6333 9.091 24.2037 9.091C24.1128 9.091 24.0264 9.12736 23.9628 9.191C23.8992 9.25464 23.8628 9.34101 23.8628 9.43192C23.8628 9.86146 23.8628 10.5933 23.8628 11.0228C23.8628 11.1137 23.8992 11.2001 23.9628 11.2637C24.0264 11.3274 24.1128 11.3637 24.2037 11.3637C24.6333 11.3637 25.3651 11.3637 25.7946 11.3637C25.8855 11.3637 25.9719 11.3274 26.0355 11.2637C26.0992 11.2001 26.1355 11.1137 26.1355 11.0228V9.43192Z" fill="#2E3192"/>
<path id="Vector_8" fill-rule="evenodd" clip-rule="evenodd" d="M26.1355 13.9774C26.1355 13.8865 26.0992 13.8001 26.0355 13.7365C25.9719 13.6728 25.8855 13.6365 25.7946 13.6365C25.3651 13.6365 24.6333 13.6365 24.2037 13.6365C24.1128 13.6365 24.0264 13.6728 23.9628 13.7365C23.8992 13.8001 23.8628 13.8865 23.8628 13.9774C23.8628 14.4069 23.8628 15.1387 23.8628 15.5683C23.8628 15.6592 23.8992 15.7456 23.9628 15.8092C24.0264 15.8728 24.1128 15.9092 24.2037 15.9092C24.6333 15.9092 25.3651 15.9092 25.7946 15.9092C25.8855 15.9092 25.9719 15.8728 26.0355 15.8092C26.0992 15.7456 26.1355 15.6592 26.1355 15.5683V13.9774Z" fill="#2E3192"/>
<path id="Vector_9" fill-rule="evenodd" clip-rule="evenodd" d="M6.81716 24.2044C6.81716 24.1135 6.7808 24.0272 6.71716 23.9635C6.65353 23.8999 6.56716 23.8635 6.47625 23.8635C6.0467 23.8635 5.31489 23.8635 4.88535 23.8635C4.79444 23.8635 4.70807 23.8999 4.64443 23.9635C4.58079 24.0272 4.54443 24.1135 4.54443 24.2044C4.54443 24.634 4.54443 25.3658 4.54443 25.7953C4.54443 25.8862 4.58079 25.9726 4.64443 26.0363C4.70807 26.0999 4.79444 26.1363 4.88535 26.1363C5.31489 26.1363 6.0467 26.1363 6.47625 26.1363C6.56716 26.1363 6.65353 26.0999 6.71716 26.0363C6.7808 25.9726 6.81716 25.8862 6.81716 25.7953V24.2044Z" fill="#2E3192"/>
<path id="Vector_10" fill-rule="evenodd" clip-rule="evenodd" d="M20.4536 4.88638C20.4536 4.79547 20.4173 4.7091 20.3536 4.64547C20.29 4.58183 20.2036 4.54547 20.1127 4.54547C19.6832 4.54547 18.9514 4.54547 18.5218 4.54547C18.4309 4.54547 18.3445 4.58183 18.2809 4.64547C18.2173 4.7091 18.1809 4.79547 18.1809 4.88638C18.1809 5.31593 18.1809 6.04774 18.1809 6.47729C18.1809 6.56819 18.2173 6.65456 18.2809 6.7182C18.3445 6.78184 18.4309 6.8182 18.5218 6.8182C18.9514 6.8182 19.6832 6.8182 20.1127 6.8182C20.2036 6.8182 20.29 6.78184 20.3536 6.7182C20.4173 6.65456 20.4536 6.56819 20.4536 6.47729V4.88638Z" fill="#2E3192"/>
<path id="Vector_11" fill-rule="evenodd" clip-rule="evenodd" d="M20.4536 9.43192C20.4536 9.34101 20.4173 9.25464 20.3536 9.191C20.29 9.12736 20.2036 9.091 20.1127 9.091C19.6832 9.091 18.9514 9.091 18.5218 9.091C18.4309 9.091 18.3445 9.12736 18.2809 9.191C18.2173 9.25464 18.1809 9.34101 18.1809 9.43192C18.1809 9.86146 18.1809 10.5933 18.1809 11.0228C18.1809 11.1137 18.2173 11.2001 18.2809 11.2637C18.3445 11.3274 18.4309 11.3637 18.5218 11.3637C18.9514 11.3637 19.6832 11.3637 20.1127 11.3637C20.2036 11.3637 20.29 11.3274 20.3536 11.2637C20.4173 11.2001 20.4536 11.1137 20.4536 11.0228V9.43192Z" fill="#2E3192"/>
<path id="Vector_12" fill-rule="evenodd" clip-rule="evenodd" d="M20.4536 13.9774C20.4536 13.8865 20.4173 13.8001 20.3536 13.7365C20.29 13.6728 20.2036 13.6365 20.1127 13.6365C19.6832 13.6365 18.9514 13.6365 18.5218 13.6365C18.4309 13.6365 18.3445 13.6728 18.2809 13.7365C18.2173 13.8001 18.1809 13.8865 18.1809 13.9774C18.1809 14.4069 18.1809 15.1387 18.1809 15.5683C18.1809 15.6592 18.2173 15.7456 18.2809 15.8092C18.3445 15.8728 18.4309 15.9092 18.5218 15.9092C18.9514 15.9092 19.6832 15.9092 20.1127 15.9092C20.2036 15.9092 20.29 15.8728 20.3536 15.8092C20.4173 15.7456 20.4536 15.6592 20.4536 15.5683V13.9774Z" fill="#2E3192"/>
<path id="Vector_13" fill-rule="evenodd" clip-rule="evenodd" d="M11.3628 28.7499C11.3628 28.659 11.3265 28.5726 11.2628 28.509C11.1992 28.4454 11.1128 28.409 11.0219 28.409C10.5924 28.409 9.86055 28.409 9.431 28.409C9.34009 28.409 9.25372 28.4454 9.19008 28.509C9.12645 28.5726 9.09009 28.659 9.09009 28.7499C9.09009 29.1795 9.09009 29.9113 9.09009 30.3408C9.09009 30.4317 9.12645 30.5181 9.19008 30.5817C9.25372 30.6454 9.34009 30.6817 9.431 30.6817C9.86055 30.6817 10.5924 30.6817 11.0219 30.6817C11.1128 30.6817 11.1992 30.6454 11.2628 30.5817C11.3265 30.5181 11.3628 30.4317 11.3628 30.3408V28.7499Z" fill="#2E3192"/>
<path id="Vector_14" fill-rule="evenodd" clip-rule="evenodd" d="M6.81716 28.7499C6.81716 28.659 6.7808 28.5726 6.71716 28.509C6.65353 28.4454 6.56716 28.409 6.47625 28.409C6.0467 28.409 5.31489 28.409 4.88535 28.409C4.79444 28.409 4.70807 28.4454 4.64443 28.509C4.58079 28.5726 4.54443 28.659 4.54443 28.7499C4.54443 29.1795 4.54443 29.9113 4.54443 30.3408C4.54443 30.4317 4.58079 30.5181 4.64443 30.5817C4.70807 30.6454 4.79444 30.6817 4.88535 30.6817C5.31489 30.6817 6.0467 30.6817 6.47625 30.6817C6.56716 30.6817 6.65353 30.6454 6.71716 30.5817C6.7808 30.5181 6.81716 30.4317 6.81716 30.3408V28.7499Z" fill="#2E3192"/>
<path id="Vector_15" fill-rule="evenodd" clip-rule="evenodd" d="M15.9082 24.2044C15.9082 24.1135 15.8719 24.0272 15.8082 23.9635C15.7446 23.8999 15.6582 23.8635 15.5673 23.8635C15.1378 23.8635 14.406 23.8635 13.9764 23.8635C13.8855 23.8635 13.7991 23.8999 13.7355 23.9635C13.6719 24.0272 13.6355 24.1135 13.6355 24.2044C13.6355 24.634 13.6355 25.3658 13.6355 25.7953C13.6355 25.8862 13.6719 25.9726 13.7355 26.0363C13.7991 26.0999 13.8855 26.1363 13.9764 26.1363C14.406 26.1363 15.1378 26.1363 15.5673 26.1363C15.6582 26.1363 15.7446 26.0999 15.8082 26.0363C15.8719 25.9726 15.9082 25.8862 15.9082 25.7953V24.2044Z" fill="#2E3192"/>
<path id="Vector_16" fill-rule="evenodd" clip-rule="evenodd" d="M31.8172 4.88638C31.8172 4.79547 31.7808 4.7091 31.7172 4.64547C31.6535 4.58183 31.5672 4.54547 31.4762 4.54547C31.0467 4.54547 30.3149 4.54547 29.8853 4.54547C29.7944 4.54547 29.7081 4.58183 29.6444 4.64547C29.5808 4.7091 29.5444 4.79547 29.5444 4.88638C29.5444 5.31593 29.5444 6.04774 29.5444 6.47729C29.5444 6.56819 29.5808 6.65456 29.6444 6.7182C29.7081 6.78184 29.7944 6.8182 29.8853 6.8182C30.3149 6.8182 31.0467 6.8182 31.4762 6.8182C31.5672 6.8182 31.6535 6.78184 31.7172 6.7182C31.7808 6.65456 31.8172 6.56819 31.8172 6.47729V4.88638Z" fill="#2E3192"/>
<path id="Vector_17" fill-rule="evenodd" clip-rule="evenodd" d="M31.8172 9.43192C31.8172 9.34101 31.7808 9.25464 31.7172 9.191C31.6535 9.12736 31.5672 9.091 31.4762 9.091C31.0467 9.091 30.3149 9.091 29.8853 9.091C29.7944 9.091 29.7081 9.12736 29.6444 9.191C29.5808 9.25464 29.5444 9.34101 29.5444 9.43192C29.5444 9.86146 29.5444 10.5933 29.5444 11.0228C29.5444 11.1137 29.5808 11.2001 29.6444 11.2637C29.7081 11.3274 29.7944 11.3637 29.8853 11.3637C30.3149 11.3637 31.0467 11.3637 31.4762 11.3637C31.5672 11.3637 31.6535 11.3274 31.7172 11.2637C31.7808 11.2001 31.8172 11.1137 31.8172 11.0228V9.43192Z" fill="#2E3192"/>
<path id="Vector_18" fill-rule="evenodd" clip-rule="evenodd" d="M31.8172 13.9774C31.8172 13.8865 31.7808 13.8001 31.7172 13.7365C31.6535 13.6728 31.5672 13.6365 31.4762 13.6365C31.0467 13.6365 30.3149 13.6365 29.8853 13.6365C29.7944 13.6365 29.7081 13.6728 29.6444 13.7365C29.5808 13.8001 29.5444 13.8865 29.5444 13.9774C29.5444 14.4069 29.5444 15.1387 29.5444 15.5683C29.5444 15.6592 29.5808 15.7456 29.6444 15.8092C29.7081 15.8728 29.7944 15.9092 29.8853 15.9092C30.3149 15.9092 31.0467 15.9092 31.4762 15.9092C31.5672 15.9092 31.6535 15.8728 31.7172 15.8092C31.7808 15.7456 31.8172 15.6592 31.8172 15.5683V13.9774Z" fill="#2E3192"/>
<path id="Vector_19" fill-rule="evenodd" clip-rule="evenodd" d="M38.6355 28.7499C38.6355 28.659 38.5992 28.5726 38.5355 28.509C38.4719 28.4454 38.3855 28.409 38.2946 28.409C37.8651 28.409 37.1333 28.409 36.7037 28.409C36.6128 28.409 36.5264 28.4454 36.4628 28.509C36.3992 28.5726 36.3628 28.659 36.3628 28.7499C36.3628 29.1795 36.3628 29.9113 36.3628 30.3408C36.3628 30.4317 36.3992 30.5181 36.4628 30.5817C36.5264 30.6454 36.6128 30.6817 36.7037 30.6817C37.1333 30.6817 37.8651 30.6817 38.2946 30.6817C38.3855 30.6817 38.4719 30.6454 38.5355 30.5817C38.5992 30.5181 38.6355 30.4317 38.6355 30.3408V28.7499Z" fill="#2E3192"/>
<path id="Vector_20" fill-rule="evenodd" clip-rule="evenodd" d="M15.9082 28.7499C15.9082 28.659 15.8719 28.5726 15.8082 28.509C15.7446 28.4454 15.6582 28.409 15.5673 28.409C15.1378 28.409 14.406 28.409 13.9764 28.409C13.8855 28.409 13.7991 28.4454 13.7355 28.509C13.6719 28.5726 13.6355 28.659 13.6355 28.7499C13.6355 29.1795 13.6355 29.9113 13.6355 30.3408C13.6355 30.4317 13.6719 30.5181 13.7355 30.5817C13.7991 30.6454 13.8855 30.6817 13.9764 30.6817C14.406 30.6817 15.1378 30.6817 15.5673 30.6817C15.6582 30.6817 15.7446 30.6454 15.8082 30.5817C15.8719 30.5181 15.9082 30.4317 15.9082 30.3408V28.7499Z" fill="#2E3192"/>
<path id="Vector_21" fill-rule="evenodd" clip-rule="evenodd" d="M38.6355 33.2954C38.6355 33.2045 38.5992 33.1182 38.5355 33.0545C38.4719 32.9909 38.3855 32.9545 38.2946 32.9545C37.8651 32.9545 37.1333 32.9545 36.7037 32.9545C36.6128 32.9545 36.5264 32.9909 36.4628 33.0545C36.3992 33.1182 36.3628 33.2045 36.3628 33.2954C36.3628 33.725 36.3628 34.4568 36.3628 34.8863C36.3628 34.9773 36.3992 35.0636 36.4628 35.1273C36.5264 35.1909 36.6128 35.2273 36.7037 35.2273C37.1333 35.2273 37.8651 35.2273 38.2946 35.2273C38.3855 35.2273 38.4719 35.1909 38.5355 35.1273C38.5992 35.0636 38.6355 34.9773 38.6355 34.8863V33.2954Z" fill="#2E3192"/>
<path id="Vector_22" fill-rule="evenodd" clip-rule="evenodd" d="M34.0901 33.2954C34.0901 33.2045 34.0537 33.1182 33.9901 33.0545C33.9265 32.9909 33.8401 32.9545 33.7492 32.9545C33.3197 32.9545 32.5878 32.9545 32.1583 32.9545C32.0674 32.9545 31.981 32.9909 31.9174 33.0545C31.8537 33.1182 31.8174 33.2045 31.8174 33.2954C31.8174 33.725 31.8174 34.4568 31.8174 34.8863C31.8174 34.9773 31.8537 35.0636 31.9174 35.1273C31.981 35.1909 32.0674 35.2273 32.1583 35.2273C32.5878 35.2273 33.3197 35.2273 33.7492 35.2273C33.8401 35.2273 33.9265 35.1909 33.9901 35.1273C34.0537 35.0636 34.0901 34.9773 34.0901 34.8863V33.2954Z" fill="#2E3192"/>
<path id="Vector_23" fill-rule="evenodd" clip-rule="evenodd" d="M38.6355 37.8409C38.6355 37.75 38.5992 37.6636 38.5355 37.6C38.4719 37.5364 38.3855 37.5 38.2946 37.5C37.8651 37.5 37.1333 37.5 36.7037 37.5C36.6128 37.5 36.5264 37.5364 36.4628 37.6C36.3992 37.6636 36.3628 37.75 36.3628 37.8409C36.3628 38.2705 36.3628 39.0023 36.3628 39.4318C36.3628 39.5227 36.3992 39.6091 36.4628 39.6727C36.5264 39.7364 36.6128 39.7727 36.7037 39.7727C37.1333 39.7727 37.8651 39.7727 38.2946 39.7727C38.3855 39.7727 38.4719 39.7364 38.5355 39.6727C38.5992 39.6091 38.6355 39.5227 38.6355 39.4318V37.8409Z" fill="#2E3192"/>
<path id="Vector_24" fill-rule="evenodd" clip-rule="evenodd" d="M38.6355 42.3864C38.6355 42.2955 38.5992 42.2091 38.5355 42.1455C38.4719 42.0818 38.3855 42.0455 38.2946 42.0455C37.8651 42.0455 37.1333 42.0455 36.7037 42.0455C36.6128 42.0455 36.5264 42.0818 36.4628 42.1455C36.3992 42.2091 36.3628 42.2955 36.3628 42.3864C36.3628 42.8159 36.3628 43.5477 36.3628 43.9773C36.3628 44.0682 36.3992 44.1546 36.4628 44.2182C36.5264 44.2818 36.6128 44.3182 36.7037 44.3182C37.1333 44.3182 37.8651 44.3182 38.2946 44.3182C38.3855 44.3182 38.4719 44.2818 38.5355 44.2182C38.5992 44.1546 38.6355 44.0682 38.6355 43.9773V42.3864Z" fill="#2E3192"/>
<path id="Vector_25" fill-rule="evenodd" clip-rule="evenodd" d="M34.0901 37.8409C34.0901 37.75 34.0537 37.6636 33.9901 37.6C33.9265 37.5364 33.8401 37.5 33.7492 37.5C33.3197 37.5 32.5878 37.5 32.1583 37.5C32.0674 37.5 31.981 37.5364 31.9174 37.6C31.8537 37.6636 31.8174 37.75 31.8174 37.8409C31.8174 38.2705 31.8174 39.0023 31.8174 39.4318C31.8174 39.5227 31.8537 39.6091 31.9174 39.6727C31.981 39.7364 32.0674 39.7727 32.1583 39.7727C32.5878 39.7727 33.3197 39.7727 33.7492 39.7727C33.8401 39.7727 33.9265 39.7364 33.9901 39.6727C34.0537 39.6091 34.0901 39.5227 34.0901 39.4318V37.8409Z" fill="#2E3192"/>
<path id="Vector_26" fill-rule="evenodd" clip-rule="evenodd" d="M34.0901 42.3864C34.0901 42.2955 34.0537 42.2091 33.9901 42.1455C33.9265 42.0818 33.8401 42.0455 33.7492 42.0455C33.3197 42.0455 32.5878 42.0455 32.1583 42.0455C32.0674 42.0455 31.981 42.0818 31.9174 42.1455C31.8537 42.2091 31.8174 42.2955 31.8174 42.3864C31.8174 42.8159 31.8174 43.5477 31.8174 43.9773C31.8174 44.0682 31.8537 44.1546 31.9174 44.2182C31.981 44.2818 32.0674 44.3182 32.1583 44.3182C32.5878 44.3182 33.3197 44.3182 33.7492 44.3182C33.8401 44.3182 33.9265 44.2818 33.9901 44.2182C34.0537 44.1546 34.0901 44.0682 34.0901 43.9773V42.3864Z" fill="#2E3192"/>
<path id="Vector_27" fill-rule="evenodd" clip-rule="evenodd" d="M29.5445 37.8409C29.5445 37.75 29.5081 37.6636 29.4445 37.6C29.3808 37.5364 29.2945 37.5 29.2035 37.5C28.774 37.5 28.0422 37.5 27.6126 37.5C27.5217 37.5 27.4354 37.5364 27.3717 37.6C27.3081 37.6636 27.2717 37.75 27.2717 37.8409C27.2717 38.2705 27.2717 39.0023 27.2717 39.4318C27.2717 39.5227 27.3081 39.6091 27.3717 39.6727C27.4354 39.7364 27.5217 39.7727 27.6126 39.7727C28.0422 39.7727 28.774 39.7727 29.2035 39.7727C29.2945 39.7727 29.3808 39.7364 29.4445 39.6727C29.5081 39.6091 29.5445 39.5227 29.5445 39.4318V37.8409Z" fill="#2E3192"/>
<path id="Vector_28" fill-rule="evenodd" clip-rule="evenodd" d="M29.5445 42.3864C29.5445 42.2955 29.5081 42.2091 29.4445 42.1455C29.3808 42.0818 29.2945 42.0455 29.2035 42.0455C28.774 42.0455 28.0422 42.0455 27.6126 42.0455C27.5217 42.0455 27.4354 42.0818 27.3717 42.1455C27.3081 42.2091 27.2717 42.2955 27.2717 42.3864C27.2717 42.8159 27.2717 43.5477 27.2717 43.9773C27.2717 44.0682 27.3081 44.1546 27.3717 44.2182C27.4354 44.2818 27.5217 44.3182 27.6126 44.3182C28.0422 44.3182 28.774 44.3182 29.2035 44.3182C29.2945 44.3182 29.3808 44.2818 29.4445 44.2182C29.5081 44.1546 29.5445 44.0682 29.5445 43.9773V42.3864Z" fill="#2E3192"/>
<path id="Vector_29" fill-rule="evenodd" clip-rule="evenodd" d="M24.999 37.8409C24.999 37.75 24.9627 37.6636 24.899 37.6C24.8354 37.5364 24.749 37.5 24.6581 37.5C24.2286 37.5 23.4968 37.5 23.0672 37.5C22.9763 37.5 22.89 37.5364 22.8263 37.6C22.7627 37.6636 22.7263 37.75 22.7263 37.8409C22.7263 38.2705 22.7263 39.0023 22.7263 39.4318C22.7263 39.5227 22.7627 39.6091 22.8263 39.6727C22.89 39.7364 22.9763 39.7727 23.0672 39.7727C23.4968 39.7727 24.2286 39.7727 24.6581 39.7727C24.749 39.7727 24.8354 39.7364 24.899 39.6727C24.9627 39.6091 24.999 39.5227 24.999 39.4318V37.8409Z" fill="#2E3192"/>
<path id="Vector_30" fill-rule="evenodd" clip-rule="evenodd" d="M24.999 42.3864C24.999 42.2955 24.9627 42.2091 24.899 42.1455C24.8354 42.0818 24.749 42.0455 24.6581 42.0455C24.2286 42.0455 23.4968 42.0455 23.0672 42.0455C22.9763 42.0455 22.89 42.0818 22.8263 42.1455C22.7627 42.2091 22.7263 42.2955 22.7263 42.3864C22.7263 42.8159 22.7263 43.5477 22.7263 43.9773C22.7263 44.0682 22.7627 44.1546 22.8263 44.2182C22.89 44.2818 22.9763 44.3182 23.0672 44.3182C23.4968 44.3182 24.2286 44.3182 24.6581 44.3182C24.749 44.3182 24.8354 44.2818 24.899 44.2182C24.9627 44.1546 24.999 44.0682 24.999 43.9773V42.3864Z" fill="#2E3192"/>
</g>
</svg>
