<svg width="60" height="60" viewBox="0 0 60 60" fill="none" xmlns="http://www.w3.org/2000/svg">
<g id="Group 30">
<path id="Vector" d="M25.7152 0C18.6392 0 12.8576 5.78163 12.8576 12.8576C12.8576 19.9336 18.6392 25.7152 25.7152 25.7152C32.7912 25.7152 38.5728 19.9336 38.5728 12.8576C38.5728 5.78163 32.7912 0 25.7152 0ZM25.7152 4.28587C30.4747 4.28587 34.2869 8.10029 34.2869 12.8576C34.2869 17.6171 30.4747 21.4293 25.7152 21.4293C20.9557 21.4293 17.1435 17.6171 17.1435 12.8576C17.1435 8.10029 20.9557 4.28587 25.7152 4.28587ZM19.2864 30.0011C8.63816 30.0011 0 38.6392 0 49.2875V53.5733C0 54.1417 0.225773 54.6867 0.627651 55.0886C1.02953 55.4905 1.57459 55.7163 2.14293 55.7163H25.3895C25.9578 55.7163 26.5029 55.4905 26.9048 55.0886C27.3066 54.6867 27.5324 54.1417 27.5324 53.5733C27.5324 53.005 27.3066 52.4599 26.9048 52.0581C26.5029 51.6562 25.9578 51.4304 25.3895 51.4304H4.28587V49.2875C4.28587 40.9407 10.9397 34.2869 19.2864 34.2869H27.8924C28.4608 34.2869 29.0058 34.0612 29.4077 33.6593C29.8096 33.2574 30.0354 32.7123 30.0354 32.144C30.0354 31.5757 29.8096 31.0306 29.4077 30.6287C29.0058 30.2268 28.4608 30.0011 27.8924 30.0011H19.2864ZM44.9737 30.0011C44.6917 30.0041 44.413 30.0628 44.1536 30.1737C43.8943 30.2847 43.6593 30.4457 43.4623 30.6475C43.2652 30.8493 43.1099 31.0881 43.0052 31.35C42.9006 31.6119 42.8486 31.8919 42.8522 32.174V34.5012C41.5094 34.7811 40.2332 35.3173 39.0935 36.0806L37.4478 34.4348C36.942 33.9162 36.3699 33.7191 35.8277 33.7491C34.2055 33.8348 32.8597 35.9499 34.4177 37.4649L36.0699 39.1193C35.3105 40.2591 34.778 41.5345 34.5012 42.8758H32.174C29.2768 42.8351 29.2768 47.2045 32.174 47.1617H34.5098C34.7884 48.5139 35.3348 49.7718 36.0741 50.8882L34.4091 52.5533C32.3304 54.5741 35.4206 57.6621 37.4392 55.5834L39.1021 53.9226C40.2397 54.6826 41.5129 55.2166 42.8522 55.4956V57.8271C42.8094 60.7243 47.1788 60.7243 47.1381 57.8271V55.502C48.4757 55.224 49.7474 54.6915 50.884 53.9333L52.5554 55.6048C52.7519 55.8143 52.9884 55.9821 53.2509 56.0984C53.5135 56.2147 53.7967 56.277 54.0838 56.2817C54.3709 56.2863 54.656 56.2332 54.9222 56.1256C55.1884 56.0179 55.4302 55.8578 55.6334 55.6548C55.8365 55.4519 55.9967 55.2101 56.1046 54.944C56.2125 54.6779 56.2657 54.3928 56.2613 54.1057C56.2568 53.8186 56.1947 53.5353 56.0786 53.2727C55.9626 53.0101 55.7949 52.7734 55.5856 52.5769L53.9205 50.9097C54.6798 49.774 55.2137 48.5031 55.4934 47.166H57.8292C58.3975 47.166 58.9426 46.9402 59.3445 46.5383C59.7464 46.1364 59.9721 45.5914 59.9721 45.023C59.9721 44.4547 59.7464 43.9096 59.3445 43.5078C58.9426 43.1059 58.3975 42.8801 57.8292 42.8801H55.502C55.2255 41.53 54.6899 40.2463 53.9248 39.1L55.577 37.4478C55.7828 37.2487 55.9465 37.0103 56.0583 36.7467C56.1701 36.4831 56.2277 36.1997 56.2277 35.9134C56.2277 35.6271 56.1701 35.3437 56.0583 35.0801C55.9465 34.8165 55.7828 34.5781 55.577 34.3791C55.1703 33.9827 54.6234 33.7631 54.0555 33.7683C53.4893 33.7781 52.95 34.0115 52.5554 34.4177L50.899 36.0741C49.7602 35.3135 48.4854 34.7795 47.1445 34.5012V32.174C47.1491 31.8881 47.0964 31.6042 46.9893 31.339C46.8823 31.0739 46.7232 30.8329 46.5214 30.6303C46.3196 30.4277 46.0793 30.2676 45.8145 30.1596C45.5498 30.0515 45.2661 29.9976 44.9802 30.0011H44.9737ZM45.0016 38.5728C48.576 38.5728 51.4304 41.425 51.4304 45.0016C51.4304 48.576 48.576 51.4304 45.0016 51.4304C41.425 51.4304 38.5728 48.576 38.5728 45.0016C38.5728 41.425 41.425 38.5728 45.0016 38.5728Z" fill="#1E1E1E"/>
<path id="Vector_2" d="M44.9727 30.0011C44.6906 30.0042 44.4119 30.0629 44.1526 30.1738C43.8932 30.2847 43.6583 30.4457 43.4612 30.6476C43.2642 30.8494 43.1088 31.0881 43.0042 31.3501C42.8995 31.612 42.8475 31.892 42.8512 32.1741V34.5013C41.5084 34.7811 40.2322 35.3174 39.0925 36.0806L37.4467 34.4349C36.941 33.9163 36.3688 33.7191 35.8266 33.7491C34.2044 33.8348 32.8587 35.9499 34.4166 37.465L36.0688 39.1193C35.3095 40.2591 34.7769 41.5346 34.5002 42.8759H32.1729C29.2757 42.8352 29.2757 47.2046 32.1729 47.1617H34.5087C34.7873 48.5139 35.3338 49.7718 36.0731 50.8883L34.408 52.5534C32.3294 54.5742 35.4195 57.6621 37.4381 55.5835L39.101 53.9227C40.2386 54.6827 41.5118 55.2167 42.8512 55.4956V57.8271C42.8083 60.7244 47.1778 60.7244 47.137 57.8271V55.502C48.4746 55.2241 49.7463 54.6915 50.8829 53.9334L52.5544 55.6049C52.7508 55.8144 52.9873 55.9822 53.2498 56.0985C53.5124 56.2147 53.7956 56.2771 54.0827 56.2817C54.3698 56.2864 54.655 56.2333 54.9212 56.1256C55.1873 56.0179 55.4292 55.8579 55.6323 55.6549C55.8354 55.4519 55.9956 55.2102 56.1035 54.9441C56.2114 54.678 56.2647 54.3929 56.2602 54.1058C56.2558 53.8187 56.1936 53.5354 56.0776 53.2728C55.9615 53.0101 55.7938 52.7735 55.5845 52.5769L53.9194 50.9097C54.6787 49.7741 55.2127 48.5032 55.4923 47.166H57.8281C58.3965 47.166 58.9415 46.9403 59.3434 46.5384C59.7453 46.1365 59.9711 45.5914 59.9711 45.0231C59.9711 44.4548 59.7453 43.9097 59.3434 43.5078C58.9415 43.1059 58.3965 42.8802 57.8281 42.8802H55.5009C55.2244 41.53 54.6888 40.2463 53.9237 39.1L55.5759 37.4478C55.7817 37.2488 55.9454 37.0104 56.0572 36.7468C56.169 36.4832 56.2266 36.1998 56.2266 35.9135C56.2266 35.6272 56.169 35.3438 56.0572 35.0802C55.9454 34.8166 55.7817 34.5782 55.5759 34.3791C55.1692 33.9827 54.6223 33.7632 54.0544 33.7684C53.4883 33.7782 52.949 34.0116 52.5544 34.4177L50.8979 36.0742C49.7591 35.3136 48.4844 34.7795 47.1435 34.5013V32.1741C47.1481 31.8882 47.0953 31.6042 46.9883 31.3391C46.8812 31.0739 46.7221 30.833 46.5203 30.6304C46.3185 30.4278 46.0782 30.2677 45.8135 30.1596C45.5487 30.0516 45.265 29.9977 44.9791 30.0011H44.9727ZM45.0005 38.5729C48.5749 38.5729 51.4293 41.4251 51.4293 45.0017C51.4293 48.5761 48.5749 51.4305 45.0005 51.4305C41.424 51.4305 38.5717 48.5761 38.5717 45.0017C38.5717 41.4251 41.424 38.5729 45.0005 38.5729Z" fill="#2E3192"/>
</g>
</svg>
