<svg width="49" height="44" viewBox="0 0 49 44" fill="none" xmlns="http://www.w3.org/2000/svg">
<g id="Group 25">
<path id="Vector" d="M45.1 0H3.3C1.4795 0 0 1.4795 0 3.3V35.2C0 37.0205 1.4795 38.5 3.3 38.5H19.8275L19.459 39.4295C19.1789 40.1307 18.6946 40.7315 18.0689 41.1542C17.4433 41.5769 16.7051 41.8019 15.95 41.8H13.75C13.145 41.8 12.65 42.295 12.65 42.9C12.65 43.505 13.145 44 13.75 44H34.65C35.255 44 35.75 43.505 35.75 42.9C35.75 42.295 35.255 41.8 34.65 41.8H32.45C30.899 41.8 29.524 40.8705 28.9465 39.4295L28.5725 38.5H45.1C46.9205 38.5 48.4 37.0205 48.4 35.2V3.3C48.4 1.4795 46.9205 0 45.1 0ZM2.2 3.3C2.2 2.695 2.695 2.2 3.3 2.2H45.1C45.705 2.2 46.2 2.695 46.2 3.3V30.8H2.2V3.3ZM26.9005 40.2435C27.1315 40.8155 27.4395 41.338 27.8135 41.8H20.5865C20.9605 41.338 21.2685 40.8155 21.4995 40.2435L22.1925 38.5H26.202L26.9005 40.2435ZM46.2 35.2C46.2 35.805 45.705 36.3 45.1 36.3H3.3C2.695 36.3 2.2 35.805 2.2 35.2V33H46.2V35.2Z" fill="white"/>
<path id="Vector_2" d="M38.5 5.5H26.4C25.553 5.5 24.783 5.8245 24.2 6.347C23.5965 5.80253 22.8128 5.50079 22 5.5H9.9C9.295 5.5 8.8 5.995 8.8 6.6V23.1C8.8 23.705 9.295 24.2 9.9 24.2H22C22.605 24.2 23.1 24.695 23.1 25.3C23.1 25.905 23.595 26.4 24.2 26.4C24.805 26.4 25.3 25.905 25.3 25.3C25.3 24.695 25.795 24.2 26.4 24.2H30.25V26.4C30.25 27.005 30.745 27.5 31.35 27.5C31.955 27.5 32.45 27.005 32.45 26.4V24.2H38.5C39.105 24.2 39.6 23.705 39.6 23.1V6.6C39.6 5.995 39.105 5.5 38.5 5.5ZM23.1 22.187C22.7535 22.066 22.385 22 22 22H11V7.7H22C22.605 7.7 23.1 8.195 23.1 8.8V22.187ZM37.4 22H26.4C26.015 22 25.6465 22.066 25.3 22.187V8.8C25.3 8.195 25.795 7.7 26.4 7.7H37.4V22Z" fill="white"/>
</g>
</svg>
