<svg width="50" height="50" viewBox="0 0 50 50" fill="none" xmlns="http://www.w3.org/2000/svg">
<g id="email 1" clip-path="url(#clip0_316_6441)">
<path id="Vector" d="M47.5 11.875L43.75 9.6875V3.125C43.75 1.25 42.5 0 40.625 0H9.375C7.5 0 6.25 1.25 6.25 3.125V9.6875L2.5 11.875C0.9375 12.5 0 14.0625 0 15.9375V45.3125C0 47.8125 2.1875 50 4.6875 50C5.625 50 6.25 49.375 6.25 48.4375C6.25 47.5 5.625 46.875 4.6875 46.875C3.75 46.875 3.125 46.25 3.125 45.3125V17.5L19.375 30.9375C19.6875 31.25 20 31.25 20.3125 31.25H29.6875C30 31.25 30.3125 31.25 30.625 30.9375L46.875 17.5V45.3125C46.875 46.25 46.25 46.875 45.3125 46.875H10.9375C10 46.875 9.375 47.5 9.375 48.4375C9.375 49.375 10 50 10.9375 50H45.3125C47.8125 50 50 47.8125 50 45.3125V15.9375C50 14.0625 49.0625 12.5 47.5 11.875ZM45.625 14.375L43.75 15.9375V13.4375L45.625 14.375ZM6.25 15.9375L4.375 14.375L6.25 13.4375V15.9375ZM29.0625 28.125H20.9375L9.375 18.4375V3.125H40.625V18.4375L29.0625 28.125Z" fill="white"/>
</g>
<defs>
<clipPath id="clip0_316_6441">
<rect width="50" height="50" fill="white"/>
</clipPath>
</defs>
</svg>
