<svg width="284" height="62" viewBox="0 0 284 62" fill="none" xmlns="http://www.w3.org/2000/svg">
<path fill-rule="evenodd" clip-rule="evenodd" d="M33.2757 44.5662H20.366L30.6767 0H61.4385L58.5413 12.6115H40.6892L33.2757 44.5662Z" fill="white"/>
<path fill-rule="evenodd" clip-rule="evenodd" d="M33.2757 44.5662H20.366L30.6767 0L31.5714 5.28319H33.7018L37.4085 26.8846L33.2757 44.5662Z" fill="#C7C9C8"/>
<path fill-rule="evenodd" clip-rule="evenodd" d="M10.4386 49.85H23.3909L33.7016 5.28369H2.89723L0 17.8952H17.8095L10.4386 49.85Z" fill="#2E3192"/>
<path fill-rule="evenodd" clip-rule="evenodd" d="M2.89723 5.28369L0 17.8952H5.07016L2.89723 5.28369ZM10.4386 49.85H23.3057L17.8521 17.8952L10.4386 49.85Z" fill="#2E3192"/>
<path d="M266.077 44.566H268.931L274.215 22.0699H282.651L283.247 19.4709H263.52L262.924 22.0699H271.36L266.077 44.566ZM240.811 35.4057L249.545 22.5811L252.23 35.4057H240.811ZM231.693 44.566H234.591L239.149 37.9194H252.826L254.19 44.566H257.257L251.761 19.2578H249.119L231.693 44.566ZM209.282 44.566H227.603L228.2 41.967H212.691L214.779 33.1901H228.498L229.094 30.5911H215.375L217.378 22.0273H232.716L233.312 19.4283H215.162L209.282 44.566ZM181.546 44.566H184.4L187.042 33.2753H201.528L198.886 44.566H201.741L207.663 19.4283H204.809L202.167 30.5911H187.681L190.323 19.4283H187.468L181.546 44.566ZM163.992 38.8142C160.2 38.8142 158.325 35.6613 159.177 32.0398C160.029 28.333 163.31 25.2653 167.145 25.2653C170.979 25.2653 172.854 28.4182 172.002 32.0398C171.107 35.7039 167.826 38.8142 163.992 38.8142ZM162.458 45.0773C170.212 45.0773 177.413 39.2402 179.074 31.9971C180.779 24.7115 176.39 18.917 168.636 18.917C160.882 18.917 153.681 24.7541 152.019 31.9971C150.315 39.3254 154.704 45.0773 162.458 45.0773ZM118.318 44.566H125.135L128.501 30.2077L132.591 39.9645H132.719L141.453 30.1225L138.045 44.566H144.989L150.912 19.4283H143.541L135.275 29.1425L131.568 19.4283H124.198L118.318 44.566ZM102.127 31.5285L103.533 25.521H108.092C110.436 25.521 111.629 26.5435 111.16 28.5034C110.734 30.4207 109.072 31.5711 106.729 31.5711H102.127V31.5285ZM92.0723 44.566H99.0598L100.849 36.9395H103.917L107.198 44.566H115.25L111.33 35.7891C114.782 34.4683 117.423 31.9119 118.318 28.0774C118.914 25.521 118.616 23.6037 117.508 22.1125C116.23 20.4082 113.802 19.4283 109.967 19.4283H98.0798L92.0723 44.566ZM67.7015 44.566H88.0673L89.4733 38.6437H75.9671L76.9044 34.6813H88.962L90.2402 29.1851H78.1826L79.0774 25.3932H92.3706L93.7766 19.4709H73.5812L67.7015 44.566ZM39.9221 44.566H46.867L49.1251 35.0222H58.0724L55.8143 44.566H62.7591L68.6814 19.4283H61.7366L59.521 28.8443H50.5737L52.7892 19.4283H45.8444L39.9221 44.566Z" fill="white"/>
<path fill-rule="evenodd" clip-rule="evenodd" d="M26.4585 49.8491H267.951L268.548 47.3779H27.0124L26.4585 49.8491Z" fill="#2E3192"/>
<path d="M258.194 60.3733H259.132V56.4961L262.114 60.3733H262.924V54.9623H261.986V58.7117L259.089 54.9623H258.194V60.3733ZM254.232 59.5638C253.167 59.5638 252.4 58.669 252.4 57.6465C252.4 56.5813 253.167 55.7292 254.232 55.7292C255.297 55.7292 256.064 56.6239 256.064 57.6465C256.064 58.7117 255.297 59.5638 254.232 59.5638ZM254.189 60.4585C255.851 60.4585 257.044 59.1803 257.044 57.6465C257.044 56.1127 255.894 54.8345 254.232 54.8345C252.57 54.8345 251.377 56.1127 251.377 57.6465C251.377 59.1803 252.528 60.4585 254.189 60.4585ZM249.205 60.3733H250.142V54.9623H249.205V60.3733ZM245.455 60.3733H246.435V55.8144H248.139V54.9197H243.751V55.8144H245.455V60.3733ZM240.129 58.2004L241.067 56.0275L242.004 58.2004H240.129ZM238.255 60.3733H239.235L239.789 59.0525H242.345L242.899 60.3733H243.921L241.535 54.9197H240.641L238.255 60.3733ZM233.909 60.3733H237.701V59.5212H234.846V54.9623H233.909V60.3733ZM231.523 60.3733H232.46V54.9623H231.523V60.3733ZM227.774 60.3733H228.753V55.8144H230.458V54.9197H226.069V55.8144H227.774V60.3733ZM220.317 60.3733H221.255V56.4961L224.237 60.3733H225.047V54.9623H224.109V58.7117L221.212 54.9623H220.317V60.3733ZM215.119 60.3733H219.167V59.5212H216.057V58.0726H218.784V57.2204H216.057V55.8144H219.124V54.9623H215.119V60.3733ZM211.114 60.4159H211.967L214.225 54.9623H213.202L211.583 59.1377L209.964 54.9623H208.899L211.114 60.4159ZM198.588 60.4585C199.568 60.4585 200.335 60.0751 200.846 59.6064V57.3482H198.546V58.1578H199.952V59.1803C199.611 59.436 199.142 59.6064 198.631 59.6064C197.523 59.6064 196.799 58.7969 196.799 57.6891C196.799 56.6239 197.566 55.7718 198.546 55.7718C199.227 55.7718 199.653 55.9848 200.079 56.3683L200.676 55.644C200.122 55.1753 199.525 54.9197 198.588 54.9197C196.969 54.9197 195.776 56.1979 195.776 57.7317C195.776 59.2655 196.884 60.4585 198.588 60.4585ZM189.896 60.3733H190.834V56.4961L193.816 60.3733H194.626V54.9623H193.688V58.7117L190.791 54.9623H189.896V60.3733ZM187.51 60.3733H188.448V54.9623H187.51V60.3733ZM181.333 60.3733H182.27V56.4961L185.252 60.3733H186.062V54.9623H185.125V58.7117L182.227 54.9623H181.333V60.3733ZM177.328 59.5638C176.262 59.5638 175.496 58.669 175.496 57.6465C175.496 56.5813 176.262 55.7292 177.328 55.7292C178.393 55.7292 179.16 56.6239 179.16 57.6465C179.16 58.7117 178.435 59.5638 177.328 59.5638ZM177.328 60.4585C178.989 60.4585 180.182 59.1803 180.182 57.6465C180.182 56.1127 179.032 54.8345 177.37 54.8345C175.709 54.8345 174.516 56.1127 174.516 57.6465C174.516 59.1803 175.666 60.4585 177.328 60.4585ZM172.343 60.3733H173.28V54.9623H172.343V60.3733ZM168.593 60.3733H169.573V55.8144H171.277V54.9197H166.889V55.8144H168.593V60.3733ZM164.844 60.3733H165.781V54.9623H164.844V60.3733ZM159.689 59.4786V55.7718H160.754C161.904 55.7718 162.628 56.5387 162.628 57.6039C162.628 58.669 161.904 59.436 160.754 59.436H159.689V59.4786ZM158.751 60.3733H160.754C162.458 60.3733 163.651 59.1803 163.651 57.6465C163.651 56.1127 162.458 54.9197 160.754 54.9197H158.751V60.3733ZM152.616 60.3733H153.553V56.4961L156.536 60.3733H157.345V54.9623H156.408V58.7117L153.511 54.9623H152.616V60.3733ZM148.654 59.5638C147.588 59.5638 146.821 58.669 146.821 57.6465C146.821 56.5813 147.588 55.7292 148.654 55.7292C149.719 55.7292 150.486 56.6239 150.486 57.6465C150.486 58.7117 149.719 59.5638 148.654 59.5638ZM148.611 60.4585C150.273 60.4585 151.466 59.1803 151.466 57.6465C151.466 56.1127 150.315 54.8345 148.654 54.8345C146.992 54.8345 145.799 56.1127 145.799 57.6465C145.799 59.1803 146.949 60.4585 148.611 60.4585ZM142.987 60.4585C144.009 60.4585 144.606 60.0751 145.202 59.4786L144.606 58.8395C144.137 59.2655 143.711 59.5638 143.029 59.5638C142.007 59.5638 141.24 58.7117 141.24 57.6465C141.24 56.5813 142.007 55.7292 143.029 55.7292C143.669 55.7292 144.095 55.9848 144.563 56.4109L145.16 55.6866C144.649 55.1753 144.052 54.8345 143.029 54.8345C141.368 54.8345 140.217 56.1127 140.217 57.6465C140.217 59.2229 141.41 60.4585 142.987 60.4585ZM133.486 57.6465V55.8144H134.892C135.616 55.8144 135.999 56.1127 135.999 56.7091C135.999 57.263 135.573 57.6465 134.892 57.6465H133.486ZM132.548 60.3733H133.486V58.456H134.679L136.042 60.3307H137.15L135.701 58.2856C136.468 58.0726 136.979 57.5187 136.979 56.6239C136.979 55.5588 136.255 54.8771 134.977 54.8771H132.548V60.3733ZM130.12 60.3733H131.057V54.9623H130.12V60.3733ZM125.39 58.2004L126.328 56.0275L127.265 58.2004H125.39ZM123.516 60.3733H124.496L125.05 59.0525H127.606L128.16 60.3733H129.182L126.796 54.9197H125.902L123.516 60.3733ZM113.248 60.4585C114.228 60.4585 114.994 60.0751 115.506 59.6064V57.3482H113.205V58.1578H114.611V59.1803C114.27 59.436 113.802 59.6064 113.29 59.6064C112.182 59.6064 111.458 58.7969 111.458 57.6891C111.458 56.6239 112.225 55.7718 113.205 55.7718C113.887 55.7718 114.313 55.9848 114.739 56.3683L115.335 55.644C114.781 55.1753 114.185 54.9197 113.248 54.9197C111.629 54.9197 110.436 56.1979 110.436 57.7317C110.436 59.2655 111.543 60.4585 113.248 60.4585ZM104.556 60.3733H105.493V56.4961L108.476 60.3733H109.285V54.9623H108.348V58.7117L105.451 54.9623H104.556V60.3733ZM102.127 60.3733H103.065V54.9623H102.127V60.3733ZM97.4407 59.5212V58.0299H98.9319C99.6988 58.0299 100.04 58.2856 100.04 58.7543C100.04 59.2655 99.6562 59.5212 98.9745 59.5212H97.4407ZM97.4407 57.2204V55.7718H98.8041C99.4006 55.7718 99.7414 56.0275 99.7414 56.4535C99.7414 56.9648 99.3154 57.2204 98.7189 57.2204H97.4407ZM96.5033 60.3733H99.0171C100.21 60.3733 101.02 59.862 101.02 58.8821C101.02 58.1152 100.594 57.7743 99.9545 57.5613C100.338 57.3482 100.721 57.0074 100.721 56.3683C100.721 55.9848 100.594 55.6866 100.338 55.4736C100.04 55.1753 99.5284 55.0049 98.9319 55.0049H96.5033V60.3733ZM89.7715 60.3733H90.7089V56.4961L92.4131 59.0525H92.4557L94.16 56.4961V60.3733H95.0973V54.9623H94.0748L92.4131 57.5187L90.7515 54.9623H89.7289V60.3733H89.7715ZM86.15 60.4585C87.556 60.4585 88.4933 59.649 88.4933 58.0299V54.9623H87.556V58.0726C87.556 59.0525 87.0447 59.5638 86.1926 59.5638C85.3405 59.5638 84.8292 59.0099 84.8292 58.0299V54.9623H83.8918V58.0726C83.8066 59.649 84.7014 60.4585 86.15 60.4585ZM79.2478 60.3733H83.0397V59.5212H80.1851V54.9623H79.2478V60.3733ZM75.0297 57.7743V55.8144H76.1375C76.8618 55.8144 77.2879 56.1553 77.2879 56.7944C77.2879 57.3909 76.8192 57.7743 76.1375 57.7743H75.0297ZM74.0924 60.3733H75.0297V58.6264H76.0949C77.2879 58.6264 78.2678 57.9873 78.2678 56.7944C78.2678 55.6866 77.4583 54.9623 76.2227 54.9623H74.0924V60.3733ZM63.3556 60.4585C64.3355 60.4585 65.1025 60.0751 65.6137 59.6064V57.3482H63.313V58.1578H64.719V59.1803C64.3781 59.436 63.9095 59.6064 63.3982 59.6064C62.2904 59.6064 61.5661 58.7969 61.5661 57.6891C61.5661 56.6239 62.333 55.7718 63.313 55.7718C63.9947 55.7718 64.4207 55.9848 64.8468 56.3683L65.4433 55.644C64.8894 55.1753 64.2929 54.9197 63.3556 54.9197C61.7365 54.9197 60.5436 56.1979 60.5436 57.7317C60.5436 59.2655 61.6513 60.4585 63.3556 60.4585ZM54.6639 60.3733H55.6012V56.4961L58.5837 60.3733H59.3932V54.9623H58.4559V58.7117L55.5586 54.9623H54.6639V60.3733ZM52.2779 60.3733H53.2153V54.9623H52.2779V60.3733ZM48.5286 60.3733H49.5085V55.8144H51.2128V54.9197H46.8243V55.8144H48.5286V60.3733ZM43.2028 58.2004L44.1401 56.0275L45.0775 58.2004H43.2028ZM41.3281 60.3733H42.3081L42.8619 59.0525H45.4183L45.9722 60.3733H46.9947L44.6088 54.9197H43.7141L41.3281 60.3733ZM36.5988 60.3733H40.6464V59.5212H37.5361V58.0726H40.2629V57.2204H37.5361V55.8144H40.6038V54.9623H36.5988V60.3733ZM30.6765 60.3733H31.6139V58.0726H34.2128V60.3733H35.1502V54.9623H34.2128V57.2204H31.6139V54.9623H30.6765V60.3733Z" fill="white"/>
<path d="M196.586 61.0549H197.31V54.1953H196.586V61.0549ZM115.208 61.0549H115.932V54.1953H115.208V61.0549ZM67.6162 61.0549H68.3405V54.1953H67.6162V61.0549Z" fill="#2E3192"/>
</svg>
