<svg width="53" height="55" viewBox="0 0 53 55" fill="none" xmlns="http://www.w3.org/2000/svg">
<path id="Vector" d="M42.5665 23.5136L45.0626 14.8427C45.3203 14.8717 45.5781 14.8958 45.8333 14.8958C49.6244 14.8958 52.7083 11.8119 52.7083 8.02083C52.7083 4.22974 49.6244 1.14583 45.8333 1.14583C42.4334 1.14583 39.6099 3.62871 39.0618 6.875H12.1666L9.04582 0.633341C8.85167 0.245056 8.455 0 8.02083 0H1.14583C0.513051 0 0 0.513051 0 1.14583C0 1.77862 0.513051 2.29167 1.14583 2.29167H7.31252L9.60419 6.875H8.39681C7.67059 6.875 7.00312 7.2079 6.56616 7.78809C6.1292 8.36828 5.99324 9.10177 6.1941 9.80001L10.1049 23.4045L10.1419 23.5136C12.6596 29.8071 18.507 33.9668 25.2083 34.3384V52.7083H19.4792C18.8464 52.7083 18.3333 53.2214 18.3333 53.8542C18.3333 54.487 18.8464 55 19.4792 55H33.2292C33.8619 55 34.375 54.487 34.375 53.8542C34.375 53.2214 33.8619 52.7083 33.2292 52.7083H27.5V34.3384C34.2013 33.9668 40.0487 29.8071 42.5665 23.5136ZM45.8333 3.4375C48.3605 3.4375 50.4167 5.49362 50.4167 8.02083C50.4167 10.5876 48.2685 12.651 45.7098 12.5944L46.5142 9.80001C46.7151 9.10233 46.5791 8.36828 46.1422 7.78809C45.7052 7.2079 45.0377 6.875 44.3115 6.875H41.4127C41.9252 4.90385 43.7041 3.4375 45.8333 3.4375ZM12.2909 22.7147L8.39681 9.16667L11.4577 9.16646C11.4583 9.16646 11.4589 9.16667 11.4595 9.16667C11.4602 9.16667 11.4609 9.16646 11.4615 9.16646L44.3126 9.16387L40.4175 22.7147C38.1157 28.4081 32.6686 32.0833 26.5231 32.0833H26.1852C20.0398 32.0833 14.5926 28.4081 12.2909 22.7147Z" fill="#2E3192"/>
</svg>
