<svg width="50" height="50" viewBox="0 0 50 50" fill="none" xmlns="http://www.w3.org/2000/svg">
<g id="Group 9">
<path id="Vector" d="M16.111 33.3333H9.44436C8.83325 33.3333 8.33325 33.8333 8.33325 34.4444V41.1111C8.33325 41.7222 8.83325 42.2222 9.44436 42.2222H16.111C16.7221 42.2222 17.2221 41.7222 17.2221 41.1111V34.4444C17.2221 33.8333 16.7221 33.3333 16.111 33.3333ZM14.9999 40H10.5555V35.5556H14.9999V40ZM28.3333 33.3333H21.6666C21.0555 33.3333 20.5555 33.8333 20.5555 34.4444V41.1111C20.5555 41.7222 21.0555 42.2222 21.6666 42.2222H28.3333C28.9444 42.2222 29.4444 41.7222 29.4444 41.1111V34.4444C29.4444 33.8333 28.9444 33.3333 28.3333 33.3333ZM27.2221 40H22.7777V35.5556H27.2221V40ZM40.5555 33.3333H33.8888C33.2777 33.3333 32.7777 33.8333 32.7777 34.4444V41.1111C32.7777 41.7222 33.2777 42.2222 33.8888 42.2222H40.5555C41.1666 42.2222 41.6666 41.7222 41.6666 41.1111V34.4444C41.6666 33.8333 41.1666 33.3333 40.5555 33.3333ZM39.4444 40H34.9999V35.5556H39.4444V40ZM11.111 6.66667C11.7221 6.66667 12.2221 6.16667 12.2221 5.55556V4.44444C12.2221 3.22222 13.2221 2.22222 14.4444 2.22222H29.9999C30.611 2.22222 31.111 1.72222 31.111 1.11111C31.111 0.5 30.611 0 29.9999 0H14.4444C11.9999 0 9.99992 2 9.99992 4.44444V5.55556C9.99992 6.16667 10.4999 6.66667 11.111 6.66667ZM27.2221 5.55556C24.7777 5.55556 22.7777 7.55556 22.7777 10V11.1111C22.7777 11.7222 23.2777 12.2222 23.8888 12.2222C24.4999 12.2222 24.9999 11.7222 24.9999 11.1111V10C24.9999 8.77778 25.9999 7.77778 27.2221 7.77778H35.5555C36.1666 7.77778 36.6666 7.27778 36.6666 6.66667C36.6666 6.05556 36.1666 5.55556 35.5555 5.55556H27.2221ZM34.4444 2.22222H41.111C41.7221 2.22222 42.2221 1.72222 42.2221 1.11111C42.2221 0.5 41.7221 0 41.111 0H34.4444C33.8333 0 33.3333 0.5 33.3333 1.11111C33.3333 1.72222 33.8333 2.22222 34.4444 2.22222ZM38.8888 6.66667C38.8888 7.27778 39.3888 7.77778 39.9999 7.77778H44.4444C45.0555 7.77778 45.5555 7.27778 45.5555 6.66667C45.5555 6.05556 45.0555 5.55556 44.4444 5.55556H39.9999C39.3888 5.55556 38.8888 6.05556 38.8888 6.66667Z" fill="#2E3192"/>
<path id="Vector_2" d="M45.5554 2.22222C46.1691 2.22222 46.6666 1.72476 46.6666 1.11111C46.6666 0.497461 46.1691 0 45.5554 0C44.9418 0 44.4443 0.497461 44.4443 1.11111C44.4443 1.72476 44.9418 2.22222 45.5554 2.22222Z" fill="#2E3192"/>
<path id="Vector_3" d="M48.8889 7.77783C49.5026 7.77783 50.0001 7.28036 50.0001 6.66671C50.0001 6.05306 49.5026 5.5556 48.8889 5.5556C48.2753 5.5556 47.7778 6.05306 47.7778 6.66671C47.7778 7.28036 48.2753 7.77783 48.8889 7.77783Z" fill="#2E3192"/>
<path id="Vector_4" d="M48.8889 47.7778H47.2222V28.8889C47.2222 27.2222 46 25.8889 44.4444 25.6111V16.6667C44.4444 16.2222 44.1667 15.8333 43.7778 15.6667C43.3889 15.5 42.8889 15.5556 42.6111 15.8333L31.2778 25.5556H28.7222L27.2222 16.5C27.1111 15.9444 26.6667 15.5556 26.1111 15.5556H21.6667C21.1111 15.5556 20.6667 15.9444 20.5556 16.5L19.0556 25.5556H16.5556L15 11C14.9444 10.4444 14.4444 10 13.8889 10H8.33333C7.77778 10 7.27778 10.4444 7.22222 11L5.66667 25.6111C4.05556 25.8333 2.77778 27.2222 2.77778 28.8889V47.7778H1.11111C0.5 47.7778 0 48.2778 0 48.8889C0 49.5 0.5 50 1.11111 50H48.8889C49.5 50 50 49.5 50 48.8889C50 48.2778 49.5 47.7778 48.8889 47.7778ZM42.2222 19.0556V25.5556H34.6667L42.2222 19.0556ZM22.6111 17.7778H25.1667L25.5556 20H22.2222L22.6111 17.7778ZM21.8889 22.2222H25.9444L26.5 25.5556H21.3333L21.8889 22.2222ZM9.33333 12.2222H12.8889L13.2222 15.5556H8.94445L9.33333 12.2222ZM8.72222 17.7778H13.4444L14.2778 25.5556H7.88889L8.72222 17.7778ZM45 47.7778H5V28.8889C5 28.2778 5.5 27.7778 6.11111 27.7778H43.8889C44.5 27.7778 45 28.2778 45 28.8889V47.7778Z" fill="#2E3192"/>
</g>
</svg>
