<svg width="49" height="49" viewBox="0 0 49 49" fill="none" xmlns="http://www.w3.org/2000/svg">
<g id="Group">
<path id="Vector" d="M12.4675 31.2982L19.4811 22.1827L27.4811 28.4675L34.3447 19.6097" stroke="#2E3192" stroke-width="4" stroke-linecap="round" stroke-linejoin="round"/>
<path id="Vector_2" d="M42.3447 11.0077C44.8321 11.0077 46.8485 8.99125 46.8485 6.50384C46.8485 4.01644 44.8321 2 42.3447 2C39.8573 2 37.8408 4.01644 37.8408 6.50384C37.8408 8.99125 39.8573 11.0077 42.3447 11.0077Z" stroke="#2E3192" stroke-width="4" stroke-linecap="round" stroke-linejoin="round"/>
<path id="Vector_3" d="M30.4629 3.97314H13.4324C6.37561 3.97314 2 8.97078 2 16.0275V34.9671C2 42.0238 6.28981 47 13.4324 47H33.5945C40.6512 47 45.0268 42.0238 45.0268 34.9671V18.4727" stroke="#2E3192" stroke-width="4" stroke-linecap="round" stroke-linejoin="round"/>
</g>
</svg>
