<svg width="48" height="48" viewBox="0 0 48 48" fill="none" xmlns="http://www.w3.org/2000/svg">
<g id="Group">
<path id="Vector" d="M12.2344 30.6473L19.0921 21.7344L26.9143 27.8795L33.6253 19.2186" stroke="#2E3192" stroke-width="3" stroke-linecap="round" stroke-linejoin="round"/>
<path id="Vector_2" d="M41.4479 10.8075C43.88 10.8075 45.8516 8.83585 45.8516 6.40374C45.8516 3.97162 43.88 2 41.4479 2C39.0158 2 37.0441 3.97162 37.0441 6.40374C37.0441 8.83585 39.0158 10.8075 41.4479 10.8075Z" stroke="#2E3192" stroke-width="3" stroke-linecap="round" stroke-linejoin="round"/>
<path id="Vector_3" d="M29.8303 3.92957H13.1782C6.27835 3.92957 2 8.81612 2 15.716V34.2346C2 41.1345 6.19446 46 13.1782 46H32.8922C39.7921 46 44.0705 41.1345 44.0705 34.2346V18.1069" stroke="#2E3192" stroke-width="3" stroke-linecap="round" stroke-linejoin="round"/>
</g>
</svg>
