<svg width="29" height="50" viewBox="0 0 29 50" fill="none" xmlns="http://www.w3.org/2000/svg">
<g id="Group 22">
<path id="Vector" d="M26.5625 0H1.5625C1.1481 0 0.750672 0.16462 0.457646 0.457646C0.16462 0.750671 0 1.1481 0 1.5625V48.4375C0 48.8519 0.16462 49.2493 0.457646 49.5424C0.750672 49.8354 1.1481 50 1.5625 50H26.5625C26.9769 50 27.3743 49.8354 27.6674 49.5424C27.9604 49.2493 28.125 48.8519 28.125 48.4375V1.5625C28.125 1.1481 27.9604 0.750671 27.6674 0.457646C27.3743 0.16462 26.9769 0 26.5625 0ZM25 46.875H3.125V3.125H25V46.875Z" fill="white"/>
<path id="Vector_2" d="M14.8438 40.625H13.2812C12.8668 40.625 12.4694 40.7896 12.1764 41.0826C11.8834 41.3757 11.7188 41.7731 11.7188 42.1875C11.7188 42.6019 11.8834 42.9993 12.1764 43.2924C12.4694 43.5854 12.8668 43.75 13.2812 43.75H14.8438C15.2582 43.75 15.6556 43.5854 15.9486 43.2924C16.2416 42.9993 16.4062 42.6019 16.4062 42.1875C16.4062 41.7731 16.2416 41.3757 15.9486 41.0826C15.6556 40.7896 15.2582 40.625 14.8438 40.625ZM8.59375 9.375H19.5312C19.9457 9.375 20.3431 9.21038 20.6361 8.91735C20.9291 8.62433 21.0938 8.2269 21.0938 7.8125C21.0938 7.3981 20.9291 7.00067 20.6361 6.70765C20.3431 6.41462 19.9457 6.25 19.5312 6.25H8.59375C8.17935 6.25 7.78192 6.41462 7.4889 6.70765C7.19587 7.00067 7.03125 7.3981 7.03125 7.8125C7.03125 8.2269 7.19587 8.62433 7.4889 8.91735C7.78192 9.21038 8.17935 9.375 8.59375 9.375Z" fill="white"/>
</g>
</svg>
