<svg width="50" height="50" viewBox="0 0 50 50" fill="none" xmlns="http://www.w3.org/2000/svg">
<g id="user 1" clip-path="url(#clip0_316_162)">
<path id="Vector" d="M26.5438 3.18127C23.975 3.18127 21.8563 5.2969 21.8563 7.86877C21.8563 9.88752 23.1719 11.6094 24.9813 12.2625V15.7313H28.1063V12.2625C29.9188 11.6094 31.2313 9.88752 31.2313 7.86877C31.2313 5.2969 29.1156 3.18127 26.5438 3.18127ZM26.5438 6.30627C27.425 6.30627 28.1063 6.9844 28.1063 7.86877C28.1063 8.75002 27.425 9.43127 26.5438 9.43127C26.3377 9.43422 26.1332 9.39582 25.9423 9.31834C25.7514 9.24086 25.578 9.12588 25.4323 8.98019C25.2866 8.83451 25.1717 8.66109 25.0942 8.47019C25.0167 8.27928 24.9783 8.07478 24.9813 7.86877C24.9813 6.9844 25.6625 6.30627 26.5438 6.30627ZM13.1281 8.5094C11.925 8.5094 10.7219 8.96565 9.81563 9.87502C8.94217 10.7569 8.45217 11.9479 8.45217 13.1891C8.45217 14.4303 8.94217 15.6213 9.81563 16.5031C10.5026 17.1789 11.3806 17.6273 12.3307 17.7877C13.2809 17.9481 14.2574 17.8128 15.1281 17.4L17.5844 19.8563L19.7938 17.6438L17.3406 15.1969C17.7564 14.3252 17.8934 13.3466 17.7329 12.3943C17.5724 11.442 17.1222 10.5623 16.4438 9.87502C16.0084 9.4409 15.4918 9.09684 14.9234 8.86252C14.355 8.62819 13.7429 8.5082 13.1281 8.5094ZM39.85 8.54065C38.6469 8.54065 37.4438 8.9969 36.5375 9.90627C35.8592 10.5922 35.4084 11.4702 35.2462 12.4212C35.0841 13.3722 35.2185 14.35 35.6313 15.2219L33.1844 17.6688L35.3937 19.8781L37.8406 17.4313C39.5812 18.25 41.7344 17.9625 43.1656 16.5344C44.0391 15.6525 44.5291 14.4615 44.5291 13.2203C44.5291 11.9791 44.0391 10.7881 43.1656 9.90627C42.7302 9.47121 42.2132 9.12636 41.6442 8.89149C41.0753 8.65661 40.4655 8.53945 39.85 8.54065ZM13.1313 11.6156C13.3369 11.6173 13.5402 11.6596 13.7295 11.74C13.9188 11.8205 14.0904 11.9375 14.2344 12.0844C14.8594 12.7094 14.8594 13.6719 14.2344 14.2938C13.6094 14.9188 12.6469 14.9188 12.025 14.2938C11.4 13.6688 11.4 12.7094 12.025 12.0844C12.169 11.9375 12.3405 11.8205 12.5298 11.74C12.7191 11.6596 12.9256 11.6173 13.1313 11.6156ZM39.85 11.6469C40.0557 11.6486 40.259 11.6909 40.4483 11.7713C40.6376 11.8517 40.8092 11.9688 40.9531 12.1157C41.5781 12.7407 41.5781 13.7031 40.9531 14.325C40.3312 14.95 39.3687 14.95 38.7437 14.325C38.1219 13.7 38.1219 12.7375 38.7437 12.1157C38.8881 11.9684 39.0602 11.8511 39.25 11.7707C39.4399 11.6902 39.6438 11.6482 39.85 11.6469ZM26.5688 18.8C24.4988 18.8066 22.5155 19.6318 21.0518 21.0955C19.5881 22.5592 18.7628 24.5425 18.7562 26.6125C18.7562 30.9063 22.2719 34.425 26.5688 34.425C30.8656 34.425 34.3813 30.9063 34.3813 26.6125C34.3813 22.3156 30.8656 18.8 26.5688 18.8ZM45.3687 21.8938C43.3469 21.8938 41.625 23.2063 40.9719 25.0188H37.5062V28.1438H40.975C41.625 29.95 43.35 31.2688 45.3687 31.2688C47.9375 31.2688 50.0562 29.15 50.0562 26.5813C50.0562 24.0094 47.9375 21.8938 45.3687 21.8938ZM7.8125 21.9125C5.24062 21.9125 3.125 24.0281 3.125 26.6C3.125 29.1688 5.24062 31.2875 7.8125 31.2875C9.83125 31.2875 11.5531 29.9688 12.2062 28.1625H15.675V25.0375H12.2062C11.5562 23.225 9.83125 21.9125 7.8125 21.9125ZM26.5688 21.925C29.175 21.925 31.2563 24.0031 31.2563 26.6125C31.2563 29.2188 29.175 31.3 26.5688 31.3C23.9625 31.3 21.8813 29.2188 21.8813 26.6125C21.8813 24.0031 23.9625 21.925 26.5688 21.925ZM45.3687 25.0188C46.25 25.0188 46.9312 25.7 46.9312 26.5813C46.9312 27.4625 46.25 28.1438 45.3687 28.1438C45.1627 28.1467 44.9582 28.1083 44.7673 28.0308C44.5764 27.9534 44.403 27.8384 44.2573 27.6927C44.1116 27.547 43.9967 27.3736 43.9192 27.1827C43.8417 26.9918 43.8033 26.7873 43.8062 26.5813C43.8062 25.7 44.4875 25.0188 45.3687 25.0188ZM7.8125 25.0375C8.69375 25.0375 9.375 25.7188 9.375 26.6C9.375 27.4813 8.69375 28.1625 7.8125 28.1625C7.60649 28.1655 7.40199 28.1271 7.21109 28.0496C7.02019 27.9721 6.84676 27.8571 6.70108 27.7114C6.5554 27.5658 6.44042 27.3923 6.36294 27.2014C6.28546 27.0105 6.24705 26.806 6.25 26.6C6.25 25.7188 6.93125 25.0375 7.8125 25.0375ZM27.2875 34.4375C26.6917 34.4101 26.0949 34.4174 25.5 34.4594C20.7406 34.7938 16.125 37.3469 12.8125 41.8657L12.5062 42.2782V50H40.6312V42.2532L40.325 41.8406C39.8712 41.221 39.383 40.6273 38.8625 40.0625C35.5875 36.5281 31.4563 34.6313 27.2875 34.4375ZM28.1313 37.6563C31.125 38.0313 34.0687 39.4907 36.5687 42.1875C36.8937 42.5438 37.2031 42.9344 37.5062 43.3219V46.875H15.6312V43.4313C18.25 40.0406 21.5781 38.1188 25.0063 37.6719V43.8125H28.1313V37.6563Z" fill="#2E3192"/>
</g>
<defs>
<clipPath id="clip0_316_162">
<rect width="50" height="50" fill="white"/>
</clipPath>
</defs>
</svg>
