<svg width="42" height="42" viewBox="0 0 42 42" fill="none" xmlns="http://www.w3.org/2000/svg">
<path id="Vector" d="M20.6085 0C18.348 0 16.4835 1.86175 16.4835 4.125C16.4835 5.9015 17.6412 7.41675 19.2335 7.9915V11.044H21.9835V7.9915C23.5785 7.41675 24.7335 5.9015 24.7335 4.125C24.7335 1.86175 22.8718 0 20.6085 0ZM20.6085 2.75C21.384 2.75 21.9835 3.34675 21.9835 4.125C21.9835 4.9005 21.384 5.5 20.6085 5.5C20.4272 5.50259 20.2473 5.4688 20.0793 5.40062C19.9113 5.33243 19.7587 5.23125 19.6305 5.10305C19.5023 4.97485 19.4011 4.82224 19.3329 4.65424C19.2647 4.48625 19.2309 4.30628 19.2335 4.125C19.2335 3.34675 19.833 2.75 20.6085 2.75ZM8.80275 4.68875C7.744 4.68875 6.68525 5.09025 5.88775 5.8905C5.11911 6.66653 4.68791 7.71462 4.68791 8.80687C4.68791 9.89913 5.11911 10.9472 5.88775 11.7233C6.49229 12.3179 7.2649 12.7125 8.10104 12.8536C8.93718 12.9948 9.7965 12.8757 10.5628 12.5125L12.7242 14.674L14.6685 12.727L12.5097 10.5737C12.8756 9.80669 12.9962 8.94549 12.8549 8.10745C12.7137 7.26941 12.3176 6.49528 11.7205 5.8905C11.3374 5.50847 10.8828 5.2057 10.3826 4.99949C9.88243 4.79329 9.34377 4.68769 8.80275 4.68875ZM32.318 4.71625C31.2592 4.71625 30.2005 5.11775 29.403 5.918C28.8061 6.52161 28.4094 7.29429 28.2667 8.13113C28.124 8.96797 28.2423 9.82845 28.6055 10.5957L26.4523 12.749L28.3965 14.6932L30.5498 12.54C32.0815 13.2605 33.9762 13.0075 35.2357 11.7507C36.0044 10.9747 36.4356 9.92663 36.4356 8.83438C36.4356 7.74212 36.0044 6.69403 35.2357 5.918C34.8526 5.53515 34.3976 5.23168 33.8969 5.02499C33.3962 4.81829 32.8597 4.71519 32.318 4.71625ZM8.8055 7.42225C8.9865 7.42373 9.16542 7.46093 9.332 7.53172C9.49859 7.6025 9.64956 7.70548 9.77625 7.83475C10.3262 8.38475 10.3262 9.23175 9.77625 9.779C9.22625 10.329 8.37925 10.329 7.832 9.779C7.282 9.229 7.282 8.38475 7.832 7.83475C7.95869 7.70548 8.10966 7.6025 8.27625 7.53172C8.44283 7.46093 8.62451 7.42373 8.8055 7.42225ZM32.318 7.44975C32.499 7.45123 32.6779 7.48843 32.8445 7.55922C33.0111 7.63 33.1621 7.73298 33.2887 7.86225C33.8387 8.41225 33.8387 9.25925 33.2887 9.8065C32.7415 10.3565 31.8945 10.3565 31.3445 9.8065C30.7972 9.2565 30.7972 8.4095 31.3445 7.86225C31.4715 7.73266 31.6229 7.62949 31.79 7.55869C31.9571 7.48789 32.1365 7.45087 32.318 7.44975ZM20.6305 13.7445C18.8089 13.7503 17.0636 14.4765 15.7756 15.7645C14.4875 17.0526 13.7613 18.7979 13.7555 20.6195C13.7555 24.398 16.8492 27.4945 20.6305 27.4945C24.4117 27.4945 27.5055 24.398 27.5055 20.6195C27.5055 16.8382 24.4117 13.7445 20.6305 13.7445ZM37.1745 16.467C35.3952 16.467 33.88 17.622 33.3053 19.217H30.2555V21.967H33.308C33.88 23.5565 35.398 24.717 37.1745 24.717C39.435 24.717 41.2995 22.8525 41.2995 20.592C41.2995 18.3287 39.435 16.467 37.1745 16.467ZM4.125 16.4835C1.86175 16.4835 0 18.3452 0 20.6085C0 22.869 1.86175 24.7335 4.125 24.7335C5.9015 24.7335 7.41675 23.573 7.9915 21.9835H11.044V19.2335H7.9915C7.4195 17.6385 5.9015 16.4835 4.125 16.4835ZM20.6305 16.4945C22.924 16.4945 24.7555 18.3232 24.7555 20.6195C24.7555 22.913 22.924 24.7445 20.6305 24.7445C18.337 24.7445 16.5055 22.913 16.5055 20.6195C16.5055 18.3232 18.337 16.4945 20.6305 16.4945ZM37.1745 19.217C37.95 19.217 38.5495 19.8165 38.5495 20.592C38.5495 21.3675 37.95 21.967 37.1745 21.967C36.9932 21.9696 36.8133 21.9358 36.6453 21.8676C36.4773 21.7994 36.3247 21.6982 36.1965 21.57C36.0683 21.4418 35.9671 21.2892 35.8989 21.1212C35.8307 20.9532 35.7969 20.7733 35.7995 20.592C35.7995 19.8165 36.399 19.217 37.1745 19.217ZM4.125 19.2335C4.9005 19.2335 5.5 19.833 5.5 20.6085C5.5 21.384 4.9005 21.9835 4.125 21.9835C3.94372 21.9861 3.76375 21.9523 3.59576 21.8841C3.42776 21.8159 3.27515 21.7147 3.14695 21.5865C3.01875 21.4583 2.91757 21.3057 2.84938 21.1377C2.7812 20.9697 2.74741 20.7898 2.75 20.6085C2.75 19.833 3.3495 19.2335 4.125 19.2335ZM21.263 27.5055C20.7387 27.4813 20.2135 27.4878 19.69 27.5248C15.5017 27.819 11.44 30.0658 8.525 34.0423L8.2555 34.4053V41.2005H33.0055V34.3833L32.736 34.0203C32.3367 33.4749 31.907 32.9525 31.449 32.4555C28.567 29.3453 24.9315 27.676 21.263 27.5055ZM22.0055 30.338C24.64 30.668 27.2305 31.9523 29.4305 34.3255C29.7165 34.639 29.9887 34.9828 30.2555 35.3238V38.4505H11.0055V35.42C13.31 32.4363 16.2387 30.745 19.2555 30.3518V35.7555H22.0055V30.338Z" fill="#2E3192"/>
</svg>
