<svg width="60" height="60" viewBox="0 0 60 60" fill="none" xmlns="http://www.w3.org/2000/svg">
<g id="Group 29">
<path id="Vector" d="M59.6874 47.3762L48.6259 28.521C49.7058 26.0348 50.3137 23.2968 50.3137 20.4159C50.3137 9.15992 41.1556 0 29.8968 0C18.6403 0 9.47988 9.15992 9.47988 20.4159C9.47988 23.3036 10.0901 26.0484 11.1768 28.5414L0.296798 47.6507C-0.179597 48.4877 -0.0752437 49.5357 0.557681 50.2616C1.18834 50.9875 2.20918 51.237 3.1098 50.8786L13.9716 46.5527L15.7955 58.0854C15.9452 59.0382 16.6825 59.7913 17.6308 59.9614C17.7669 59.9887 17.903 60 18.0391 60C18.8422 60 19.6021 59.5713 20.0105 58.8522L29.9081 41.442L40.1302 58.8544C40.5431 59.5599 41.294 59.975 42.0857 59.975C42.2286 59.975 42.3761 59.9614 42.5213 59.9319C43.465 59.7459 44.1909 58.986 44.3293 58.031L46.0103 46.4733L56.9288 50.6382C57.8272 50.9762 58.848 50.7176 59.4696 49.9826C60.0844 49.2544 60.1751 48.2064 59.6874 47.3762ZM29.8945 4.53913C38.6489 4.53913 45.7744 11.662 45.7744 20.4181C45.7744 29.172 38.6489 36.2972 29.8945 36.2972C21.1379 36.2972 14.0147 29.1743 14.0147 20.4181C14.0147 11.662 21.1379 4.53913 29.8945 4.53913ZM19.2619 50.983L18.0051 43.0457C17.8985 42.3652 17.4856 41.7686 16.8867 41.4284C16.2855 41.0858 15.5641 41.0359 14.9244 41.2922L7.44045 44.2707L13.8536 33.0057C16.6916 36.6147 20.7137 39.2393 25.3325 40.2987L19.2619 50.983ZM44.9758 41.231C44.3316 40.986 43.6147 41.0473 43.0181 41.3943C42.4237 41.7414 42.0222 42.3425 41.9246 43.0253L40.7654 50.9898L34.4861 40.2941C39.1139 39.2257 43.136 36.5853 45.9717 32.9626L52.5097 44.1074L44.9758 41.231Z" fill="#1E1E1E"/>
<path id="Vector_2" d="M27.8465 26.7201C28.2724 27.1426 28.8478 27.3785 29.4481 27.3785C29.4912 27.3785 29.532 27.3785 29.5727 27.3763C30.2161 27.3403 30.8141 27.0347 31.2174 26.5358L40.281 15.2996C41.0626 14.331 40.9017 12.9152 39.9276 12.1422C38.9467 11.3669 37.5241 11.5264 36.7426 12.4927L29.2624 21.7672L24.2559 16.8007C23.3702 15.9221 21.9385 15.9221 21.0527 16.8007C20.167 17.6794 20.167 19.0997 21.0527 19.9783L27.8465 26.7201Z" fill="#2E3192"/>
</g>
</svg>
