<svg width="60" height="48" viewBox="0 0 60 48" fill="none" xmlns="http://www.w3.org/2000/svg">
<path id="Vector" d="M60 14.6667V4C60 1.8 58.2 0 56 0H34.6667C32.4667 0 30.6667 1.8 30.6667 4V8H8C5.8 8 4 9.8 4 12V38.6667H1.33333C0.6 38.6667 0 39.2667 0 40C0 44.4 3.6 48 8 48H52C56.4 48 60 44.4 60 40C60 39.2667 59.4 38.6667 58.6667 38.6667H56V18.6667C58.2 18.6667 60 16.8667 60 14.6667ZM6.66667 12C6.66667 11.2667 7.26667 10.6667 8 10.6667H30.6667V14.6667C30.6667 16.8667 32.4667 18.6667 34.6667 18.6667H37.3333V22.6667C37.3333 23.2 37.6 23.6667 38.0667 23.8667C38.2667 23.9333 38.4667 24 38.6667 24C39 24 39.2667 23.8667 39.4667 23.7333L45.8 18.6667H53.3333V38.6667H29.3333V33.3333C29.3333 29.6667 27.2 26.5333 24.1333 25C25.2667 23.9333 26 22.4 26 20.6667C26 17.3333 23.3333 14.6667 20 14.6667C16.6667 14.6667 14 17.3333 14 20.6667C14 22.3333 14.7333 23.8667 15.8667 25C12.8 26.5333 10.6667 29.6667 10.6667 33.3333V38.6667H6.66667V12ZM20 26.6667C23.6667 26.6667 26.6667 29.6667 26.6667 33.3333V38.6667H13.3333V33.3333C13.3333 29.6667 16.3333 26.6667 20 26.6667ZM16.6667 20.6667C16.6667 18.8 18.1333 17.3333 20 17.3333C21.8667 17.3333 23.3333 18.8 23.3333 20.6667C23.3333 22.5333 21.8667 24 20 24C18.1333 24 16.6667 22.5333 16.6667 20.6667ZM57.2 41.3333C56.6 43.6667 54.5333 45.3333 52 45.3333H8C5.53333 45.3333 3.4 43.6667 2.8 41.3333H57.2ZM45.3333 16C45 16 44.7333 16.0667 44.5333 16.2667L40 19.8667V17.3333C40 16.6 39.4 16 38.6667 16H34.6667C33.9333 16 33.3333 15.4 33.3333 14.6667V4C33.3333 3.26667 33.9333 2.66667 34.6667 2.66667H56C56.7333 2.66667 57.3333 3.26667 57.3333 4V14.6667C57.3333 15.4 56.7333 16 56 16H45.3333ZM40 9.33333C40 10.0667 39.4 10.6667 38.6667 10.6667C37.9333 10.6667 37.3333 10.0667 37.3333 9.33333C37.3333 8.6 37.9333 8 38.6667 8C39.4 8 40 8.6 40 9.33333ZM46.6667 9.33333C46.6667 10.0667 46.0667 10.6667 45.3333 10.6667C44.6 10.6667 44 10.0667 44 9.33333C44 8.6 44.6 8 45.3333 8C46.0667 8 46.6667 8.6 46.6667 9.33333ZM53.3333 9.33333C53.3333 10.0667 52.7333 10.6667 52 10.6667C51.2667 10.6667 50.6667 10.0667 50.6667 9.33333C50.6667 8.6 51.2667 8 52 8C52.7333 8 53.3333 8.6 53.3333 9.33333Z" fill="#2E3192"/>
</svg>
