<svg width="37" height="50" viewBox="0 0 37 50" fill="none" xmlns="http://www.w3.org/2000/svg">
<g id="Group 8">
<path id="Vector" d="M13.6668 25.3252H16.8251V28.4835C16.8251 28.9012 16.9911 29.3018 17.2864 29.5972C17.5818 29.8926 17.9824 30.0585 18.4001 30.0585C18.8178 30.0585 19.2185 29.8926 19.5138 29.5972C19.8092 29.3018 19.9751 28.9012 19.9751 28.4835V25.3252H23.1335C23.3403 25.3252 23.5451 25.2844 23.7362 25.2053C23.9273 25.1261 24.1009 25.0101 24.2472 24.8639C24.3934 24.7176 24.5094 24.544 24.5886 24.3529C24.6677 24.1618 24.7085 23.957 24.7085 23.7502C24.7085 23.5433 24.6677 23.3385 24.5886 23.1474C24.5094 22.9564 24.3934 22.7827 24.2472 22.6365C24.1009 22.4902 23.9273 22.3742 23.7362 22.2951C23.5451 22.2159 23.3403 22.1752 23.1335 22.1752H19.9751V19.0168C19.9751 18.5991 19.8092 18.1985 19.5138 17.9031C19.2185 17.6078 18.8178 17.4418 18.4001 17.4418C17.9824 17.4418 17.5818 17.6078 17.2864 17.9031C16.9911 18.1985 16.8251 18.5991 16.8251 19.0168V22.1752H13.6668C13.46 22.1752 13.2552 22.2159 13.0641 22.2951C12.873 22.3742 12.6994 22.4902 12.5531 22.6365C12.4069 22.7827 12.2908 22.9564 12.2117 23.1474C12.1325 23.3385 12.0918 23.5433 12.0918 23.7502C12.0918 23.957 12.1325 24.1618 12.2117 24.3529C12.2908 24.544 12.4069 24.7176 12.5531 24.8639C12.6994 25.0101 12.873 25.1261 13.0641 25.2053C13.2552 25.2844 13.46 25.3252 13.6668 25.3252Z" fill="#2E3192"/>
<path id="Vector_2" d="M13.6668 25.3252H16.8251V28.4835C16.8251 28.9012 16.9911 29.3018 17.2864 29.5972C17.5818 29.8926 17.9824 30.0585 18.4001 30.0585C18.8178 30.0585 19.2185 29.8926 19.5138 29.5972C19.8092 29.3018 19.9751 28.9012 19.9751 28.4835V25.3252H23.1335C23.3403 25.3252 23.5451 25.2844 23.7362 25.2053C23.9273 25.1261 24.1009 25.0101 24.2472 24.8639C24.3934 24.7176 24.5094 24.544 24.5886 24.3529C24.6677 24.1618 24.7085 23.957 24.7085 23.7502C24.7085 23.5433 24.6677 23.3385 24.5886 23.1474C24.5094 22.9564 24.3934 22.7827 24.2472 22.6365C24.1009 22.4902 23.9273 22.3742 23.7362 22.2951C23.5451 22.2159 23.3403 22.1752 23.1335 22.1752H19.9751V19.0168C19.9751 18.5991 19.8092 18.1985 19.5138 17.9031C19.2185 17.6078 18.8178 17.4418 18.4001 17.4418C17.9824 17.4418 17.5818 17.6078 17.2864 17.9031C16.9911 18.1985 16.8251 18.5991 16.8251 19.0168V22.1752H13.6668C13.46 22.1752 13.2552 22.2159 13.0641 22.2951C12.873 22.3742 12.6994 22.4902 12.5531 22.6365C12.4069 22.7827 12.2908 22.9564 12.2117 23.1474C12.1325 23.3385 12.0918 23.5433 12.0918 23.7502C12.0918 23.957 12.1325 24.1618 12.2117 24.3529C12.2908 24.544 12.4069 24.7176 12.5531 24.8639C12.6994 25.0101 12.873 25.1261 13.0641 25.2053C13.2552 25.2844 13.46 25.3252 13.6668 25.3252Z" fill="#2E3192"/>
<path id="Vector_3" d="M30.625 5.925H25.35C25.2303 4.31699 24.5081 2.81341 23.3277 1.71491C22.1473 0.61641 20.5958 0.00395139 18.9833 0H17.8167C16.2042 0.00395139 14.6527 0.61641 13.4723 1.71491C12.2919 2.81341 11.5697 4.31699 11.45 5.925H6.175C4.53873 5.925 2.96936 6.57443 1.81156 7.73067C0.653761 8.8869 0.00220819 10.4554 0 12.0917V43.825C0 45.4627 0.650578 47.0333 1.80862 48.1914C2.96665 49.3494 4.53729 50 6.175 50H30.625C32.2627 50 33.8333 49.3494 34.9914 48.1914C36.1494 47.0333 36.8 45.4627 36.8 43.825V12.0917C36.7978 10.4554 36.1462 8.8869 34.9884 7.73067C33.8306 6.57443 32.2613 5.925 30.625 5.925ZM17.8167 3.15833H18.9833C19.7591 3.16164 20.5082 3.44237 21.0951 3.94978C21.682 4.45719 22.068 5.15781 22.1833 5.925H14.6167C14.732 5.15781 15.118 4.45719 15.7049 3.94978C16.2918 3.44237 17.0409 3.16164 17.8167 3.15833ZM13.0083 9.075H28.0083C27.6889 9.88933 27.1318 10.5887 26.4095 11.0821C25.6872 11.5755 24.8331 11.8402 23.9583 11.8417H12.8333C11.9586 11.8402 11.1045 11.5755 10.3822 11.0821C9.6599 10.5887 9.10279 9.88933 8.78333 9.075H13.0083ZM33.6417 43.825C33.6417 44.6251 33.3238 45.3924 32.7581 45.9581C32.1924 46.5238 31.4251 46.8417 30.625 46.8417H6.175C5.37493 46.8417 4.60763 46.5238 4.04189 45.9581C3.47616 45.3924 3.15833 44.6251 3.15833 43.825V12.0917C3.16262 11.4092 3.39818 10.7484 3.82652 10.2172C4.25486 9.68591 4.85068 9.31558 5.51667 9.16667C5.89449 10.8243 6.82432 12.3045 8.15371 13.3643C9.4831 14.4242 11.1332 15.001 12.8333 15H23.9667C25.6668 15.001 27.3169 14.4242 28.6463 13.3643C29.9757 12.3045 30.9055 10.8243 31.2833 9.16667C31.9521 9.31622 32.55 9.68901 32.9787 10.2237C33.4073 10.7584 33.6411 11.423 33.6417 12.1083V43.825Z" fill="#2E3192"/>
<path id="Vector_4" d="M30.625 5.925H25.35C25.2303 4.31699 24.5081 2.81341 23.3277 1.71491C22.1473 0.61641 20.5958 0.00395139 18.9833 0H17.8167C16.2042 0.00395139 14.6527 0.61641 13.4723 1.71491C12.2919 2.81341 11.5697 4.31699 11.45 5.925H6.175C4.53873 5.925 2.96936 6.57443 1.81156 7.73067C0.653761 8.8869 0.00220819 10.4554 0 12.0917V43.825C0 45.4627 0.650578 47.0333 1.80862 48.1914C2.96665 49.3494 4.53729 50 6.175 50H30.625C32.2627 50 33.8333 49.3494 34.9914 48.1914C36.1494 47.0333 36.8 45.4627 36.8 43.825V12.0917C36.7978 10.4554 36.1462 8.8869 34.9884 7.73067C33.8306 6.57443 32.2613 5.925 30.625 5.925ZM17.8167 3.15833H18.9833C19.7591 3.16164 20.5082 3.44237 21.0951 3.94978C21.682 4.45719 22.068 5.15781 22.1833 5.925H14.6167C14.732 5.15781 15.118 4.45719 15.7049 3.94978C16.2918 3.44237 17.0409 3.16164 17.8167 3.15833ZM13.0083 9.075H28.0083C27.6889 9.88933 27.1318 10.5887 26.4095 11.0821C25.6872 11.5755 24.8331 11.8402 23.9583 11.8417H12.8333C11.9586 11.8402 11.1045 11.5755 10.3822 11.0821C9.6599 10.5887 9.10279 9.88933 8.78333 9.075H13.0083ZM33.6417 43.825C33.6417 44.6251 33.3238 45.3924 32.7581 45.9581C32.1924 46.5238 31.4251 46.8417 30.625 46.8417H6.175C5.37493 46.8417 4.60763 46.5238 4.04189 45.9581C3.47616 45.3924 3.15833 44.6251 3.15833 43.825V12.0917C3.16262 11.4092 3.39818 10.7484 3.82652 10.2172C4.25486 9.68591 4.85068 9.31558 5.51667 9.16667C5.89449 10.8243 6.82432 12.3045 8.15371 13.3643C9.4831 14.4242 11.1332 15.001 12.8333 15H23.9667C25.6668 15.001 27.3169 14.4242 28.6463 13.3643C29.9757 12.3045 30.9055 10.8243 31.2833 9.16667C31.9521 9.31622 32.55 9.68901 32.9787 10.2237C33.4073 10.7584 33.6411 11.423 33.6417 12.1083V43.825Z" fill="#2E3192"/>
<path id="Vector_5" d="M26.8417 32.4998H9.95838C9.74135 32.4841 9.52341 32.5132 9.31814 32.5854C9.11287 32.6576 8.92469 32.7714 8.76535 32.9195C8.60601 33.0677 8.47891 33.2472 8.39201 33.4466C8.30511 33.6461 8.26025 33.8614 8.26025 34.079C8.26025 34.2966 8.30511 34.5119 8.39201 34.7113C8.47891 34.9108 8.60601 35.0903 8.76535 35.2385C8.92469 35.3866 9.11287 35.5004 9.31814 35.5726C9.52341 35.6448 9.74135 35.6739 9.95838 35.6582H26.8417C27.0587 35.6739 27.2767 35.6448 27.482 35.5726C27.6872 35.5004 27.8754 35.3866 28.0347 35.2385C28.1941 35.0903 28.3212 34.9108 28.4081 34.7113C28.495 34.5119 28.5398 34.2966 28.5398 34.079C28.5398 33.8614 28.495 33.6461 28.4081 33.4466C28.3212 33.2472 28.1941 33.0677 28.0347 32.9195C27.8754 32.7714 27.6872 32.6576 27.482 32.5854C27.2767 32.5132 27.0587 32.4841 26.8417 32.4998ZM26.8417 41.4498H9.95838C9.74135 41.4341 9.52341 41.4632 9.31814 41.5354C9.11287 41.6076 8.92469 41.7214 8.76535 41.8695C8.60601 42.0177 8.47891 42.1972 8.39201 42.3966C8.30511 42.5961 8.26025 42.8114 8.26025 43.029C8.26025 43.2466 8.30511 43.4619 8.39201 43.6614C8.47891 43.8608 8.60601 44.0403 8.76535 44.1885C8.92469 44.3366 9.11287 44.4504 9.31814 44.5226C9.52341 44.5948 9.74135 44.6239 9.95838 44.6082H26.8417C27.0587 44.6239 27.2767 44.5948 27.482 44.5226C27.6872 44.4504 27.8754 44.3366 28.0347 44.1885C28.1941 44.0403 28.3212 43.8608 28.4081 43.6614C28.495 43.4619 28.5398 43.2466 28.5398 43.029C28.5398 42.8114 28.495 42.5961 28.4081 42.3966C28.3212 42.1972 28.1941 42.0177 28.0347 41.8695C27.8754 41.7214 27.6872 41.6076 27.482 41.5354C27.2767 41.4632 27.0587 41.4341 26.8417 41.4498Z" fill="#2E3192"/>
<path id="Vector_6" d="M26.8417 32.4998H9.95838C9.74135 32.4841 9.52341 32.5132 9.31814 32.5854C9.11287 32.6576 8.92469 32.7714 8.76535 32.9195C8.60601 33.0677 8.47891 33.2472 8.39201 33.4466C8.30511 33.6461 8.26025 33.8614 8.26025 34.079C8.26025 34.2966 8.30511 34.5119 8.39201 34.7113C8.47891 34.9108 8.60601 35.0903 8.76535 35.2385C8.92469 35.3866 9.11287 35.5004 9.31814 35.5726C9.52341 35.6448 9.74135 35.6739 9.95838 35.6582H26.8417C27.0587 35.6739 27.2767 35.6448 27.482 35.5726C27.6872 35.5004 27.8754 35.3866 28.0347 35.2385C28.1941 35.0903 28.3212 34.9108 28.4081 34.7113C28.495 34.5119 28.5398 34.2966 28.5398 34.079C28.5398 33.8614 28.495 33.6461 28.4081 33.4466C28.3212 33.2472 28.1941 33.0677 28.0347 32.9195C27.8754 32.7714 27.6872 32.6576 27.482 32.5854C27.2767 32.5132 27.0587 32.4841 26.8417 32.4998ZM26.8417 41.4498H9.95838C9.74135 41.4341 9.52341 41.4632 9.31814 41.5354C9.11287 41.6076 8.92469 41.7214 8.76535 41.8695C8.60601 42.0177 8.47891 42.1972 8.39201 42.3966C8.30511 42.5961 8.26025 42.8114 8.26025 43.029C8.26025 43.2466 8.30511 43.4619 8.39201 43.6614C8.47891 43.8608 8.60601 44.0403 8.76535 44.1885C8.92469 44.3366 9.11287 44.4504 9.31814 44.5226C9.52341 44.5948 9.74135 44.6239 9.95838 44.6082H26.8417C27.0587 44.6239 27.2767 44.5948 27.482 44.5226C27.6872 44.4504 27.8754 44.3366 28.0347 44.1885C28.1941 44.0403 28.3212 43.8608 28.4081 43.6614C28.495 43.4619 28.5398 43.2466 28.5398 43.029C28.5398 42.8114 28.495 42.5961 28.4081 42.3966C28.3212 42.1972 28.1941 42.0177 28.0347 41.8695C27.8754 41.7214 27.6872 41.6076 27.482 41.5354C27.2767 41.4632 27.0587 41.4341 26.8417 41.4498Z" fill="#2E3192"/>
</g>
</svg>
