<svg width="50" height="50" viewBox="0 0 50 50" fill="none" xmlns="http://www.w3.org/2000/svg">
<g id="Group 10">
<path id="Vector" d="M48.8095 29.7619H47.619V19.0476C47.619 18.3929 47.0833 17.8571 46.4286 17.8571H42.8571V7.14286H46.4286C47.0833 7.14286 47.619 6.60714 47.619 5.95238C47.619 5.29762 47.0833 4.7619 46.4286 4.7619H36.9048V3.57143C36.9048 2.91667 36.369 2.38095 35.7143 2.38095H30.9524V1.19048C30.9524 0.535714 30.4167 0 29.7619 0H8.33333C7.67857 0 7.14286 0.535714 7.14286 1.19048V4.7619C3.15476 5.05952 0 8.39286 0 12.5V42.2619C0 46.5476 3.45238 50 7.7381 50H46.4286C47.0833 50 47.619 49.4643 47.619 48.8095V38.0952H48.8095C49.4643 38.0952 50 37.5595 50 36.9048V30.9524C50 30.2976 49.4643 29.7619 48.8095 29.7619ZM36.9048 7.14286H40.4762V17.8571H36.9048V7.14286ZM30.9524 4.7619H34.5238V17.8571H30.9524V4.7619ZM15.4762 2.38095H28.5714V17.8571H15.4762V2.38095ZM9.52381 2.38095H13.0952V17.8571H9.52381V2.38095ZM7.14286 7.20238V17.8571C4.46429 17.5595 2.38095 15.2976 2.38095 12.5595C2.38095 9.82143 4.46429 7.5 7.14286 7.20238ZM45.2381 47.619H7.7381C4.7619 47.619 2.38095 45.2381 2.38095 42.2619V18.0952C3.75 19.4048 5.65476 20.2381 7.7381 20.2381H45.2381V23.8095H7.14286C6.4881 23.8095 5.95238 24.3452 5.95238 25V42.8571C5.95238 43.5119 6.4881 44.0476 7.14286 44.0476H45.2381V47.619ZM45.2381 41.6667H8.33333V26.1905H45.2381V29.7619H39.2857C38.631 29.7619 38.0952 30.2976 38.0952 30.9524V36.9048C38.0952 37.5595 38.631 38.0952 39.2857 38.0952H45.2381V41.6667ZM47.619 35.7143H40.4762V32.1429H47.619V35.7143ZM25 6.90476V7.38095C25 7.44048 24.9405 7.5 24.9405 7.61905C24.9405 7.67857 24.881 7.7381 24.8214 7.79762C24.7619 7.85714 24.7619 7.91667 24.7024 7.97619C24.6429 8.03571 24.5833 8.09524 24.5238 8.09524C24.4643 8.09524 24.4048 8.15476 24.3452 8.21429C24.2857 8.21429 24.2262 8.27381 24.1071 8.27381H23.631C23.5714 8.27381 23.5119 8.21429 23.3929 8.21429C23.3333 8.21429 23.2738 8.15476 23.2143 8.09524C23.1548 8.03571 23.0952 8.03571 23.0357 7.97619C22.7381 7.73809 22.619 7.44048 22.619 7.14286V6.90476C22.619 6.84524 22.6786 6.78571 22.6786 6.66667C22.6786 6.60714 22.7381 6.54762 22.7976 6.48809C22.8571 6.42857 22.8571 6.36905 22.9167 6.30952C22.9762 6.25 23.0357 6.19048 23.0952 6.19048C23.1548 6.19048 23.2143 6.13095 23.2738 6.07143C23.3333 6.07143 23.3929 6.0119 23.5119 6.0119H23.9881C24.0476 6.0119 24.1071 6.07143 24.2262 6.07143C24.2857 6.13095 24.3452 6.13095 24.4048 6.19048C24.4643 6.25 24.5238 6.30952 24.5833 6.30952C24.6429 6.36905 24.7024 6.42857 24.7024 6.48809C24.7619 6.54762 24.7619 6.60714 24.8214 6.66667C24.9405 6.78571 24.9405 6.84524 25 6.90476ZM24.6429 12.2619C24.881 12.5 25 12.7976 25 13.0952C25 13.3929 24.881 13.6905 24.6429 13.9286C24.5833 13.9881 24.5238 14.0476 24.4643 14.0476C24.4048 14.0476 24.3452 14.1071 24.2857 14.1667C24.2262 14.1667 24.1667 14.2262 24.0476 14.2262H23.5714C23.5119 14.2262 23.4524 14.1667 23.3333 14.1667C23.2738 14.1667 23.2143 14.1071 23.1548 14.0476C23.0952 13.9881 23.0357 13.9881 22.9762 13.9286C22.7381 13.6905 22.619 13.3929 22.619 13.0952C22.619 12.7976 22.7381 12.5 22.9762 12.2619C23.0357 12.2024 23.0952 12.1429 23.1548 12.1429C23.2143 12.0833 23.2738 12.0833 23.3333 12.0238C23.3929 12.0238 23.4524 11.9643 23.5714 11.9643H24.0476C24.1071 11.9643 24.1667 12.0238 24.2857 12.0238C24.3452 12.0833 24.4048 12.0833 24.4643 12.1429C24.5238 12.1429 24.5833 12.2024 24.6429 12.2619Z" fill="#2E3192"/>
</g>
</svg>
