<svg width="265" height="52" viewBox="0 0 265 52" fill="none" xmlns="http://www.w3.org/2000/svg">
<path d="M22.5 1L19.5 5.5L18.5 7.5M18.5 7.5L15 14L13.3261 17.5M18.5 7.5L13.5 8.5L1 11L4.5 10H9.5L11 11.5L12 14L13.3261 17.5M5.21429 34.5L9.5 25.5L10.4565 23.5L13.3261 17.5M5.21429 34.5L4.5 36L1.5 45L5.21429 34.5ZM26 7.5H19.5L28 7L33.5 6.5H38.5H40.5H41" stroke="black"/>
<path d="M22 23L18.5 28.5L16 33L15.5 37L17.5 38L21.5 35L24 31.5L25 27L24.5 24L22 23ZM22 23L23.5 19.5L25.5 18L28.5 17L31.5 16H35V18L34 21.5L33 25L31.5 28.5L30 31.5L29.5 35V36.5L31.5 33L34 30L36 27L38 24L40 22L42 21V25.5L40.5 30.5V33.5L43 33L50.5 25.5L53 24.5L53.5 30" stroke="white" stroke-opacity="0.87"/>
<path d="M53.5 30.5L55 32H58L66 28" stroke="white" stroke-opacity="0.87"/>
<path d="M85.5 8.5H96H98L100.5 11L100 14L99.1667 16M99.1667 16L97.5 20L87.5 36L84.5 39V36L87.5 31.5L90.5 26.5L94 21.5L99.1667 16ZM105 8.5L109.5 5.5H111.5L112.5 7.5L101.5 31.5V33L105 29.5L128 5.5L129.5 4H131V5.5L124 23.5L114.5 45.5L112.5 49.5L114.5 51" stroke="white" stroke-opacity="0.87"/>
<path d="M139 22H135L132.5 24L130 27L129 30.5V33L130 34L133.5 34.5L137 33L140 31.5L143.5 29.5L145.5 28L147 26.5L149 25.5" stroke="white" stroke-opacity="0.87"/>
<path d="M191 10L192 7.5V5L191 4H187L179.5 7.5L171.5 13L166 18.5L157 28L153 34.5L151 38.5L152.5 39.5L157 38L177 25L182.5 20L186 17L182.5 22.5L178 34.5V43H177" stroke="white" stroke-opacity="0.87"/>
<path d="M192.5 17.5H181.5L143.5 20" stroke="white" stroke-opacity="0.87"/>
<path d="M195 22L193 25.5L191 29L189.5 31.5L189 34L189.5 35.5H191L193 33.5L195 30.5L197.5 28.5L200.5 25.5L201.5 24.5L201 27V30.5V32.5L201.5 33.5L206 31.5L209.5 29L212.5 27L216 21L212.5 31.5L214 35.5L219 32.5L224 25.5L228.5 21V24.5L227 31.5L225.5 37L228.5 31.5L233.5 24.5L235 22L240 24.5H244.5L255 4L241 33L238.5 42V43.5" stroke="white" stroke-opacity="0.87"/>
<path d="M256.5 19L249 25L245 30V32H249L255 30L261.5 27.5L264.5 25" stroke="white" stroke-opacity="0.87"/>
</svg>
