<svg width="38" height="44" viewBox="0 0 38 44" fill="none" xmlns="http://www.w3.org/2000/svg">
<g id="Group 23">
<g id="Group">
<path id="Vector" fill-rule="evenodd" clip-rule="evenodd" d="M17.9994 20C17.9994 19.204 17.6832 18.441 17.1209 17.879C16.5585 17.316 15.7955 17 14.9999 17H2.99951C2.20384 17 1.44084 17.316 0.878501 17.879C0.314999 18.441 0 19.204 0 20C0 24.683 0 36.317 0 41C0 41.796 0.314999 42.559 0.878501 43.121C1.44084 43.684 2.20384 44 2.99951 44H16.9995C17.5514 44 17.9994 43.552 17.9994 43V20ZM15.9997 20V42H2.99951C2.73467 42 2.48034 41.895 2.2925 41.707C2.10467 41.52 1.99967 41.265 1.99967 41V20C1.99967 19.735 2.10467 19.48 2.2925 19.293C2.48034 19.105 2.73467 19 2.99951 19H14.9999C15.2647 19 15.519 19.105 15.7069 19.293C15.8947 19.48 15.9997 19.735 15.9997 20Z" fill="white"/>
<path id="Vector_2" fill-rule="evenodd" clip-rule="evenodd" d="M32.9996 16V3C32.9996 2.204 32.6829 1.441 32.1212 0.878998C31.5579 0.315998 30.7946 0 29.9996 0C26.1679 0 17.8312 0 13.9995 0C13.2045 0 12.4412 0.315998 11.8778 0.878998C11.3162 1.441 10.9995 2.204 10.9995 3C10.9995 6.646 10.9995 14 10.9995 14C10.9995 14.552 11.4478 15 11.9995 15C12.5512 15 12.9995 14.552 12.9995 14C12.9995 14 12.9995 6.646 12.9995 3C12.9995 2.735 13.1045 2.48 13.2928 2.293C13.4795 2.105 13.7345 2 13.9995 2H29.9996C30.2646 2 30.5195 2.105 30.7062 2.293C30.8945 2.48 30.9996 2.735 30.9996 3V16C30.9996 16.552 31.4479 17 31.9996 17C32.5512 17 32.9996 16.552 32.9996 16Z" fill="white"/>
<path id="Vector_3" fill-rule="evenodd" clip-rule="evenodd" d="M14.9992 44H34.9992C35.7952 44 36.5582 43.684 37.1202 43.121C37.6832 42.559 37.9992 41.796 37.9992 41C37.9992 36.646 37.9992 26.354 37.9992 22C37.9992 21.204 37.6832 20.441 37.1202 19.879C36.5582 19.316 35.7952 19 34.9992 19H30.3532C29.1262 19 28.0232 19.747 27.5682 20.886L24.5732 28.371C24.4222 28.751 24.0542 29 23.6452 29H16.9992C16.4472 29 16.4472 31 16.9992 31C16.9992 31 21.3632 31 23.6452 31C24.8722 31 25.9752 30.253 26.4302 29.114L29.4252 21.629C29.5762 21.249 29.9442 21 30.3532 21H34.9992C35.2642 21 35.5192 21.105 35.7062 21.293C35.8942 21.48 35.9992 21.735 35.9992 22V41C35.9992 41.265 35.8942 41.52 35.7062 41.707C35.5192 41.895 35.2642 42 34.9992 42H14.9992C14.4472 42 14.4472 44 14.9992 44Z" fill="white"/>
<path id="Vector_4" fill-rule="evenodd" clip-rule="evenodd" d="M12.9994 34C12.9994 33.204 12.6833 32.441 12.1203 31.879C11.5574 31.316 10.7944 31 9.99943 31H7.99876C7.20382 31 6.44081 31.316 5.87786 31.879C5.31491 32.441 4.99884 33.204 4.99884 34C4.99884 37.172 4.99884 43 4.99884 43C4.99884 43.552 5.44686 44 5.99917 44H11.999C12.5513 44 12.9994 43.552 12.9994 43V34ZM10.9987 34V42H6.9995V34C6.9995 33.735 7.10485 33.48 7.29215 33.293C7.47944 33.105 7.73378 33 7.99876 33H9.99943C10.2644 33 10.5187 33.105 10.706 33.293C10.8933 33.48 10.9987 33.735 10.9987 34Z" fill="white"/>
<path id="Vector_5" fill-rule="evenodd" clip-rule="evenodd" d="M9.99921 21.3C9.99921 21.22 9.96721 21.144 9.91121 21.088C9.85521 21.032 9.7792 21 9.6992 21C9.3212 21 8.67721 21 8.29921 21C8.21921 21 8.1432 21.032 8.0872 21.088C8.0312 21.144 7.99921 21.22 7.99921 21.3C7.99921 21.678 7.99921 22.322 7.99921 22.7C7.99921 22.78 8.0312 22.856 8.0872 22.912C8.1432 22.968 8.21921 23 8.29921 23C8.67721 23 9.3212 23 9.6992 23C9.7792 23 9.85521 22.968 9.91121 22.912C9.96721 22.856 9.99921 22.78 9.99921 22.7V21.3Z" fill="white"/>
<path id="Vector_6" fill-rule="evenodd" clip-rule="evenodd" d="M22.9992 4.3C22.9992 4.22 22.9672 4.144 22.9112 4.088C22.8552 4.032 22.7792 4 22.6992 4C22.3212 4 21.6772 4 21.2992 4C21.2192 4 21.1432 4.032 21.0872 4.088C21.0312 4.144 20.9992 4.22 20.9992 4.3C20.9992 4.678 20.9992 5.322 20.9992 5.7C20.9992 5.78 21.0312 5.856 21.0872 5.912C21.1432 5.968 21.2192 6 21.2992 6C21.6772 6 22.3212 6 22.6992 6C22.7792 6 22.8552 5.968 22.9112 5.912C22.9672 5.856 22.9992 5.78 22.9992 5.7V4.3Z" fill="white"/>
<path id="Vector_7" fill-rule="evenodd" clip-rule="evenodd" d="M22.9992 8.3C22.9992 8.22 22.9672 8.144 22.9112 8.088C22.8552 8.032 22.7792 8 22.6992 8C22.3212 8 21.6772 8 21.2992 8C21.2192 8 21.1432 8.032 21.0872 8.088C21.0312 8.144 20.9992 8.22 20.9992 8.3C20.9992 8.678 20.9992 9.322 20.9992 9.7C20.9992 9.78 21.0312 9.856 21.0872 9.912C21.1432 9.968 21.2192 10 21.2992 10C21.6772 10 22.3212 10 22.6992 10C22.7792 10 22.8552 9.968 22.9112 9.912C22.9672 9.856 22.9992 9.78 22.9992 9.7V8.3Z" fill="white"/>
<path id="Vector_8" fill-rule="evenodd" clip-rule="evenodd" d="M22.9992 12.3C22.9992 12.22 22.9672 12.144 22.9112 12.088C22.8552 12.032 22.7792 12 22.6992 12C22.3212 12 21.6772 12 21.2992 12C21.2192 12 21.1432 12.032 21.0872 12.088C21.0312 12.144 20.9992 12.22 20.9992 12.3C20.9992 12.678 20.9992 13.322 20.9992 13.7C20.9992 13.78 21.0312 13.856 21.0872 13.912C21.1432 13.968 21.2192 14 21.2992 14C21.6772 14 22.3212 14 22.6992 14C22.7792 14 22.8552 13.968 22.9112 13.912C22.9672 13.856 22.9992 13.78 22.9992 13.7V12.3Z" fill="white"/>
<path id="Vector_9" fill-rule="evenodd" clip-rule="evenodd" d="M5.99921 21.3C5.99921 21.22 5.96721 21.144 5.91121 21.088C5.85521 21.032 5.7792 21 5.6992 21C5.3212 21 4.67721 21 4.29921 21C4.21921 21 4.1432 21.032 4.0872 21.088C4.0312 21.144 3.99921 21.22 3.99921 21.3C3.99921 21.678 3.99921 22.322 3.99921 22.7C3.99921 22.78 4.0312 22.856 4.0872 22.912C4.1432 22.968 4.21921 23 4.29921 23C4.67721 23 5.3212 23 5.6992 23C5.7792 23 5.85521 22.968 5.91121 22.912C5.96721 22.856 5.99921 22.78 5.99921 22.7V21.3Z" fill="white"/>
<path id="Vector_10" fill-rule="evenodd" clip-rule="evenodd" d="M17.9992 4.3C17.9992 4.22 17.9672 4.144 17.9112 4.088C17.8552 4.032 17.7792 4 17.6992 4C17.3212 4 16.6772 4 16.2992 4C16.2192 4 16.1432 4.032 16.0872 4.088C16.0312 4.144 15.9992 4.22 15.9992 4.3C15.9992 4.678 15.9992 5.322 15.9992 5.7C15.9992 5.78 16.0312 5.856 16.0872 5.912C16.1432 5.968 16.2192 6 16.2992 6C16.6772 6 17.3212 6 17.6992 6C17.7792 6 17.8552 5.968 17.9112 5.912C17.9672 5.856 17.9992 5.78 17.9992 5.7V4.3Z" fill="white"/>
<path id="Vector_11" fill-rule="evenodd" clip-rule="evenodd" d="M17.9992 8.3C17.9992 8.22 17.9672 8.144 17.9112 8.088C17.8552 8.032 17.7792 8 17.6992 8C17.3212 8 16.6772 8 16.2992 8C16.2192 8 16.1432 8.032 16.0872 8.088C16.0312 8.144 15.9992 8.22 15.9992 8.3C15.9992 8.678 15.9992 9.322 15.9992 9.7C15.9992 9.78 16.0312 9.856 16.0872 9.912C16.1432 9.968 16.2192 10 16.2992 10C16.6772 10 17.3212 10 17.6992 10C17.7792 10 17.8552 9.968 17.9112 9.912C17.9672 9.856 17.9992 9.78 17.9992 9.7V8.3Z" fill="white"/>
<path id="Vector_12" fill-rule="evenodd" clip-rule="evenodd" d="M17.9992 12.3C17.9992 12.22 17.9672 12.144 17.9112 12.088C17.8552 12.032 17.7792 12 17.6992 12C17.3212 12 16.6772 12 16.2992 12C16.2192 12 16.1432 12.032 16.0872 12.088C16.0312 12.144 15.9992 12.22 15.9992 12.3C15.9992 12.678 15.9992 13.322 15.9992 13.7C15.9992 13.78 16.0312 13.856 16.0872 13.912C16.1432 13.968 16.2192 14 16.2992 14C16.6772 14 17.3212 14 17.6992 14C17.7792 14 17.8552 13.968 17.9112 13.912C17.9672 13.856 17.9992 13.78 17.9992 13.7V12.3Z" fill="white"/>
<path id="Vector_13" fill-rule="evenodd" clip-rule="evenodd" d="M9.99921 25.3C9.99921 25.22 9.96721 25.144 9.91121 25.088C9.85521 25.032 9.7792 25 9.6992 25C9.3212 25 8.67721 25 8.29921 25C8.21921 25 8.1432 25.032 8.0872 25.088C8.0312 25.144 7.99921 25.22 7.99921 25.3C7.99921 25.678 7.99921 26.322 7.99921 26.7C7.99921 26.78 8.0312 26.856 8.0872 26.912C8.1432 26.968 8.21921 27 8.29921 27C8.67721 27 9.3212 27 9.6992 27C9.7792 27 9.85521 26.968 9.91121 26.912C9.96721 26.856 9.99921 26.78 9.99921 26.7V25.3Z" fill="white"/>
<path id="Vector_14" fill-rule="evenodd" clip-rule="evenodd" d="M5.99921 25.3C5.99921 25.22 5.96721 25.144 5.91121 25.088C5.85521 25.032 5.7792 25 5.6992 25C5.3212 25 4.67721 25 4.29921 25C4.21921 25 4.1432 25.032 4.0872 25.088C4.0312 25.144 3.99921 25.22 3.99921 25.3C3.99921 25.678 3.99921 26.322 3.99921 26.7C3.99921 26.78 4.0312 26.856 4.0872 26.912C4.1432 26.968 4.21921 27 4.29921 27C4.67721 27 5.3212 27 5.6992 27C5.7792 27 5.85521 26.968 5.91121 26.912C5.96721 26.856 5.99921 26.78 5.99921 26.7V25.3Z" fill="white"/>
<path id="Vector_15" fill-rule="evenodd" clip-rule="evenodd" d="M13.9992 21.3C13.9992 21.22 13.9672 21.144 13.9112 21.088C13.8552 21.032 13.7792 21 13.6992 21C13.3212 21 12.6772 21 12.2992 21C12.2192 21 12.1432 21.032 12.0872 21.088C12.0312 21.144 11.9992 21.22 11.9992 21.3C11.9992 21.678 11.9992 22.322 11.9992 22.7C11.9992 22.78 12.0312 22.856 12.0872 22.912C12.1432 22.968 12.2192 23 12.2992 23C12.6772 23 13.3212 23 13.6992 23C13.7792 23 13.8552 22.968 13.9112 22.912C13.9672 22.856 13.9992 22.78 13.9992 22.7V21.3Z" fill="white"/>
<path id="Vector_16" fill-rule="evenodd" clip-rule="evenodd" d="M27.9992 4.3C27.9992 4.22 27.9672 4.144 27.9112 4.088C27.8552 4.032 27.7792 4 27.6992 4C27.3212 4 26.6772 4 26.2992 4C26.2192 4 26.1432 4.032 26.0872 4.088C26.0312 4.144 25.9992 4.22 25.9992 4.3C25.9992 4.678 25.9992 5.322 25.9992 5.7C25.9992 5.78 26.0312 5.856 26.0872 5.912C26.1432 5.968 26.2192 6 26.2992 6C26.6772 6 27.3212 6 27.6992 6C27.7792 6 27.8552 5.968 27.9112 5.912C27.9672 5.856 27.9992 5.78 27.9992 5.7V4.3Z" fill="white"/>
<path id="Vector_17" fill-rule="evenodd" clip-rule="evenodd" d="M27.9992 8.3C27.9992 8.22 27.9672 8.144 27.9112 8.088C27.8552 8.032 27.7792 8 27.6992 8C27.3212 8 26.6772 8 26.2992 8C26.2192 8 26.1432 8.032 26.0872 8.088C26.0312 8.144 25.9992 8.22 25.9992 8.3C25.9992 8.678 25.9992 9.322 25.9992 9.7C25.9992 9.78 26.0312 9.856 26.0872 9.912C26.1432 9.968 26.2192 10 26.2992 10C26.6772 10 27.3212 10 27.6992 10C27.7792 10 27.8552 9.968 27.9112 9.912C27.9672 9.856 27.9992 9.78 27.9992 9.7V8.3Z" fill="white"/>
<path id="Vector_18" fill-rule="evenodd" clip-rule="evenodd" d="M27.9992 12.3C27.9992 12.22 27.9672 12.144 27.9112 12.088C27.8552 12.032 27.7792 12 27.6992 12C27.3212 12 26.6772 12 26.2992 12C26.2192 12 26.1432 12.032 26.0872 12.088C26.0312 12.144 25.9992 12.22 25.9992 12.3C25.9992 12.678 25.9992 13.322 25.9992 13.7C25.9992 13.78 26.0312 13.856 26.0872 13.912C26.1432 13.968 26.2192 14 26.2992 14C26.6772 14 27.3212 14 27.6992 14C27.7792 14 27.8552 13.968 27.9112 13.912C27.9672 13.856 27.9992 13.78 27.9992 13.7V12.3Z" fill="white"/>
<path id="Vector_19" fill-rule="evenodd" clip-rule="evenodd" d="M33.9992 25.3C33.9992 25.22 33.9672 25.144 33.9112 25.088C33.8552 25.032 33.7792 25 33.6992 25C33.3212 25 32.6772 25 32.2992 25C32.2192 25 32.1432 25.032 32.0872 25.088C32.0312 25.144 31.9992 25.22 31.9992 25.3C31.9992 25.678 31.9992 26.322 31.9992 26.7C31.9992 26.78 32.0312 26.856 32.0872 26.912C32.1432 26.968 32.2192 27 32.2992 27C32.6772 27 33.3212 27 33.6992 27C33.7792 27 33.8552 26.968 33.9112 26.912C33.9672 26.856 33.9992 26.78 33.9992 26.7V25.3Z" fill="white"/>
<path id="Vector_20" fill-rule="evenodd" clip-rule="evenodd" d="M13.9992 25.3C13.9992 25.22 13.9672 25.144 13.9112 25.088C13.8552 25.032 13.7792 25 13.6992 25C13.3212 25 12.6772 25 12.2992 25C12.2192 25 12.1432 25.032 12.0872 25.088C12.0312 25.144 11.9992 25.22 11.9992 25.3C11.9992 25.678 11.9992 26.322 11.9992 26.7C11.9992 26.78 12.0312 26.856 12.0872 26.912C12.1432 26.968 12.2192 27 12.2992 27C12.6772 27 13.3212 27 13.6992 27C13.7792 27 13.8552 26.968 13.9112 26.912C13.9672 26.856 13.9992 26.78 13.9992 26.7V25.3Z" fill="white"/>
<path id="Vector_21" fill-rule="evenodd" clip-rule="evenodd" d="M33.9992 29.3C33.9992 29.22 33.9672 29.144 33.9112 29.088C33.8552 29.032 33.7792 29 33.6992 29C33.3212 29 32.6772 29 32.2992 29C32.2192 29 32.1432 29.032 32.0872 29.088C32.0312 29.144 31.9992 29.22 31.9992 29.3C31.9992 29.678 31.9992 30.322 31.9992 30.7C31.9992 30.78 32.0312 30.856 32.0872 30.912C32.1432 30.968 32.2192 31 32.2992 31C32.6772 31 33.3212 31 33.6992 31C33.7792 31 33.8552 30.968 33.9112 30.912C33.9672 30.856 33.9992 30.78 33.9992 30.7V29.3Z" fill="white"/>
<path id="Vector_22" fill-rule="evenodd" clip-rule="evenodd" d="M29.9992 29.3C29.9992 29.22 29.9672 29.144 29.9112 29.088C29.8552 29.032 29.7792 29 29.6992 29C29.3212 29 28.6772 29 28.2992 29C28.2192 29 28.1432 29.032 28.0872 29.088C28.0312 29.144 27.9992 29.22 27.9992 29.3C27.9992 29.678 27.9992 30.322 27.9992 30.7C27.9992 30.78 28.0312 30.856 28.0872 30.912C28.1432 30.968 28.2192 31 28.2992 31C28.6772 31 29.3212 31 29.6992 31C29.7792 31 29.8552 30.968 29.9112 30.912C29.9672 30.856 29.9992 30.78 29.9992 30.7V29.3Z" fill="white"/>
<path id="Vector_23" fill-rule="evenodd" clip-rule="evenodd" d="M33.9992 33.3C33.9992 33.22 33.9672 33.144 33.9112 33.088C33.8552 33.032 33.7792 33 33.6992 33C33.3212 33 32.6772 33 32.2992 33C32.2192 33 32.1432 33.032 32.0872 33.088C32.0312 33.144 31.9992 33.22 31.9992 33.3C31.9992 33.678 31.9992 34.322 31.9992 34.7C31.9992 34.78 32.0312 34.856 32.0872 34.912C32.1432 34.968 32.2192 35 32.2992 35C32.6772 35 33.3212 35 33.6992 35C33.7792 35 33.8552 34.968 33.9112 34.912C33.9672 34.856 33.9992 34.78 33.9992 34.7V33.3Z" fill="white"/>
<path id="Vector_24" fill-rule="evenodd" clip-rule="evenodd" d="M33.9992 37.3C33.9992 37.22 33.9672 37.144 33.9112 37.088C33.8552 37.032 33.7792 37 33.6992 37C33.3212 37 32.6772 37 32.2992 37C32.2192 37 32.1432 37.032 32.0872 37.088C32.0312 37.144 31.9992 37.22 31.9992 37.3C31.9992 37.678 31.9992 38.322 31.9992 38.7C31.9992 38.78 32.0312 38.856 32.0872 38.912C32.1432 38.968 32.2192 39 32.2992 39C32.6772 39 33.3212 39 33.6992 39C33.7792 39 33.8552 38.968 33.9112 38.912C33.9672 38.856 33.9992 38.78 33.9992 38.7V37.3Z" fill="white"/>
<path id="Vector_25" fill-rule="evenodd" clip-rule="evenodd" d="M29.9992 33.3C29.9992 33.22 29.9672 33.144 29.9112 33.088C29.8552 33.032 29.7792 33 29.6992 33C29.3212 33 28.6772 33 28.2992 33C28.2192 33 28.1432 33.032 28.0872 33.088C28.0312 33.144 27.9992 33.22 27.9992 33.3C27.9992 33.678 27.9992 34.322 27.9992 34.7C27.9992 34.78 28.0312 34.856 28.0872 34.912C28.1432 34.968 28.2192 35 28.2992 35C28.6772 35 29.3212 35 29.6992 35C29.7792 35 29.8552 34.968 29.9112 34.912C29.9672 34.856 29.9992 34.78 29.9992 34.7V33.3Z" fill="white"/>
<path id="Vector_26" fill-rule="evenodd" clip-rule="evenodd" d="M29.9992 37.3C29.9992 37.22 29.9672 37.144 29.9112 37.088C29.8552 37.032 29.7792 37 29.6992 37C29.3212 37 28.6772 37 28.2992 37C28.2192 37 28.1432 37.032 28.0872 37.088C28.0312 37.144 27.9992 37.22 27.9992 37.3C27.9992 37.678 27.9992 38.322 27.9992 38.7C27.9992 38.78 28.0312 38.856 28.0872 38.912C28.1432 38.968 28.2192 39 28.2992 39C28.6772 39 29.3212 39 29.6992 39C29.7792 39 29.8552 38.968 29.9112 38.912C29.9672 38.856 29.9992 38.78 29.9992 38.7V37.3Z" fill="white"/>
<path id="Vector_27" fill-rule="evenodd" clip-rule="evenodd" d="M25.9992 33.3C25.9992 33.22 25.9672 33.144 25.9112 33.088C25.8552 33.032 25.7792 33 25.6992 33C25.3212 33 24.6772 33 24.2992 33C24.2192 33 24.1432 33.032 24.0872 33.088C24.0312 33.144 23.9992 33.22 23.9992 33.3C23.9992 33.678 23.9992 34.322 23.9992 34.7C23.9992 34.78 24.0312 34.856 24.0872 34.912C24.1432 34.968 24.2192 35 24.2992 35C24.6772 35 25.3212 35 25.6992 35C25.7792 35 25.8552 34.968 25.9112 34.912C25.9672 34.856 25.9992 34.78 25.9992 34.7V33.3Z" fill="white"/>
<path id="Vector_28" fill-rule="evenodd" clip-rule="evenodd" d="M25.9992 37.3C25.9992 37.22 25.9672 37.144 25.9112 37.088C25.8552 37.032 25.7792 37 25.6992 37C25.3212 37 24.6772 37 24.2992 37C24.2192 37 24.1432 37.032 24.0872 37.088C24.0312 37.144 23.9992 37.22 23.9992 37.3C23.9992 37.678 23.9992 38.322 23.9992 38.7C23.9992 38.78 24.0312 38.856 24.0872 38.912C24.1432 38.968 24.2192 39 24.2992 39C24.6772 39 25.3212 39 25.6992 39C25.7792 39 25.8552 38.968 25.9112 38.912C25.9672 38.856 25.9992 38.78 25.9992 38.7V37.3Z" fill="white"/>
<path id="Vector_29" fill-rule="evenodd" clip-rule="evenodd" d="M21.9992 33.3C21.9992 33.22 21.9672 33.144 21.9112 33.088C21.8552 33.032 21.7792 33 21.6992 33C21.3212 33 20.6772 33 20.2992 33C20.2192 33 20.1432 33.032 20.0872 33.088C20.0312 33.144 19.9992 33.22 19.9992 33.3C19.9992 33.678 19.9992 34.322 19.9992 34.7C19.9992 34.78 20.0312 34.856 20.0872 34.912C20.1432 34.968 20.2192 35 20.2992 35C20.6772 35 21.3212 35 21.6992 35C21.7792 35 21.8552 34.968 21.9112 34.912C21.9672 34.856 21.9992 34.78 21.9992 34.7V33.3Z" fill="white"/>
<path id="Vector_30" fill-rule="evenodd" clip-rule="evenodd" d="M21.9992 37.3C21.9992 37.22 21.9672 37.144 21.9112 37.088C21.8552 37.032 21.7792 37 21.6992 37C21.3212 37 20.6772 37 20.2992 37C20.2192 37 20.1432 37.032 20.0872 37.088C20.0312 37.144 19.9992 37.22 19.9992 37.3C19.9992 37.678 19.9992 38.322 19.9992 38.7C19.9992 38.78 20.0312 38.856 20.0872 38.912C20.1432 38.968 20.2192 39 20.2992 39C20.6772 39 21.3212 39 21.6992 39C21.7792 39 21.8552 38.968 21.9112 38.912C21.9672 38.856 21.9992 38.78 21.9992 38.7V37.3Z" fill="white"/>
</g>
</g>
</svg>
