<svg width="46" height="46" viewBox="0 0 46 46" fill="none" xmlns="http://www.w3.org/2000/svg">
<g id="Group 27">
<path id="Vector" d="M13.2776 1.01379L9.66154 19.6591C9.66154 20.8255 9.19917 21.9443 8.37574 22.7704C7.5523 23.5964 6.43497 24.0624 5.26859 24.0661H5.08497C4.43145 24.0426 3.79224 23.8681 3.21739 23.5564C2.64254 23.2446 2.14764 22.804 1.77144 22.2691C1.39523 21.7342 1.14793 21.1195 1.04889 20.4731C0.949841 19.8267 1.00174 19.1662 1.20053 18.5432L1.55366 17.3143L5.40985 4.14959C5.66741 3.25057 6.21051 2.45976 6.95713 1.89661C7.70375 1.33346 8.61334 1.02855 9.54854 1.02792L13.2776 1.01379Z" stroke="white" stroke-width="2" stroke-linecap="round" stroke-linejoin="round"/>
<path id="Vector_2" d="M19.5917 1.01379L18.4052 19.6591C18.4052 20.8242 17.9424 21.9415 17.1185 22.7654C16.2947 23.5892 15.1773 24.052 14.0122 24.052C12.8472 24.052 11.7298 23.5892 10.906 22.7654C10.0821 21.9415 9.61929 20.8242 9.61929 19.6591L13.2353 1.01379H19.5917Z" stroke="white" stroke-width="2" stroke-linecap="round" stroke-linejoin="round"/>
<path id="Vector_3" d="M27.2477 19.6591C27.2817 20.2579 27.1931 20.8573 26.9873 21.4206C26.7815 21.984 26.4629 22.4994 26.051 22.9353C25.6391 23.3712 25.1425 23.7185 24.5917 23.9558C24.0409 24.1931 23.4475 24.3156 22.8477 24.3156C22.248 24.3156 21.6546 24.1931 21.1038 23.9558C20.553 23.7185 20.0564 23.3712 19.6445 22.9353C19.2326 22.4994 18.914 21.984 18.7082 21.4206C18.5024 20.8573 18.4138 20.2579 18.4477 19.6591L19.6343 1.01379H26.1319L27.2477 19.6591Z" stroke="white" stroke-width="2" stroke-linecap="round" stroke-linejoin="round"/>
<path id="Vector_4" d="M36.0334 19.8568C36.0071 21.0219 35.5192 22.1289 34.6768 22.9342C33.8344 23.7394 32.7066 24.1771 31.5416 24.1509C30.3765 24.1247 29.2695 23.6367 28.4642 22.7943C27.6589 21.9519 27.2213 20.8242 27.2475 19.6591L26.1316 1.01379H32.3749L36.0334 19.8568Z" stroke="white" stroke-width="2" stroke-linecap="round" stroke-linejoin="round"/>
<path id="Vector_5" d="M40.6239 24.0524H40.4403C39.3157 24.054 38.2332 23.6243 37.4159 22.8517C36.5987 22.0791 36.1089 21.0225 36.0474 19.8995C36.0474 19.8148 32.3748 1 32.3748 1H36.1463C37.0833 0.99987 37.995 1.30425 38.744 1.86729C39.493 2.43032 40.0388 3.22152 40.2991 4.12167L44.1411 17.2864L44.5084 18.5153C44.7098 19.1391 44.7638 19.8012 44.666 20.4494C44.5682 21.0977 44.3214 21.7144 43.9449 22.251C43.5684 22.7877 43.0725 23.2297 42.4963 23.5423C41.92 23.8548 41.2791 24.0294 40.6239 24.0524Z" stroke="white" stroke-width="2" stroke-linecap="round" stroke-linejoin="round"/>
<path id="Vector_6" d="M40.4406 24.0664C39.2717 24.0664 38.1508 23.6021 37.3243 22.7756C36.4978 21.9491 36.0335 20.8282 36.0335 19.6594C36.0335 20.8244 35.5707 21.9418 34.7468 22.7656C33.923 23.5895 32.8056 24.0523 31.6406 24.0523C30.4755 24.0523 29.3581 23.5895 28.5343 22.7656C27.7104 21.9418 27.2476 20.8244 27.2476 19.6594C27.2816 20.2581 27.1929 20.8576 26.9871 21.4209C26.7813 21.9842 26.4627 22.4996 26.0508 22.9356C25.6389 23.3715 25.1424 23.7187 24.5916 23.9561C24.0408 24.1934 23.4474 24.3158 22.8476 24.3158C22.2479 24.3158 21.6544 24.1934 21.1036 23.9561C20.5528 23.7187 20.0563 23.3715 19.6444 22.9356C19.2325 22.4996 18.9139 21.9842 18.7081 21.4209C18.5023 20.8576 18.4137 20.2581 18.4476 19.6594C18.4476 20.8244 17.9848 21.9418 17.1609 22.7656C16.3371 23.5895 15.2197 24.0523 14.0547 24.0523C12.8896 24.0523 11.7722 23.5895 10.9484 22.7656C10.1245 21.9418 9.66171 20.8244 9.66171 19.6594C9.66172 20.8257 9.19935 21.9446 8.37591 22.7706C7.55248 23.5967 6.43515 24.0627 5.26877 24.0664H5.08514V42.8106C5.08514 43.3913 5.31581 43.9481 5.72641 44.3587C6.137 44.7693 6.69389 45 7.27455 45H8.44695C8.92646 45 9.38634 44.8095 9.72542 44.4704C10.0645 44.1314 10.255 43.6715 10.255 43.192V31.6799C10.255 31.1929 10.4484 30.7258 10.7928 30.3815C11.1372 30.0371 11.6042 29.8436 12.0913 29.8436H17.134C17.6185 29.8474 18.082 30.0425 18.4233 30.3864C18.7646 30.7304 18.9561 31.1953 18.9561 31.6799V43.1213C18.9561 43.3588 19.0029 43.5939 19.0937 43.8132C19.1846 44.0326 19.3178 44.2319 19.4857 44.3998C19.6536 44.5677 19.8529 44.7009 20.0722 44.7918C20.2916 44.8826 20.5267 44.9294 20.7641 44.9294H38.4207C39.0026 44.9294 39.561 44.6992 39.9738 44.289C40.3867 43.8788 40.6205 43.3219 40.6242 42.74V24.0523L40.4406 24.0664Z" stroke="white" stroke-width="2" stroke-linecap="round" stroke-linejoin="round"/>
<path id="Vector_7" d="M34.211 29.2642H26.2303C25.2863 29.2642 24.5211 30.0294 24.5211 30.9734V36.5246C24.5211 37.4685 25.2863 38.2337 26.2303 38.2337H34.211C35.155 38.2337 35.9202 37.4685 35.9202 36.5246V30.9734C35.9202 30.0294 35.155 29.2642 34.211 29.2642Z" stroke="white" stroke-width="2" stroke-linecap="round" stroke-linejoin="round"/>
</g>
</svg>
