<svg width="45" height="44" viewBox="0 0 45 44" fill="none" xmlns="http://www.w3.org/2000/svg">
<g id="Group 26">
<path id="Vector" d="M25.1306 43.9999C24.9401 43.9999 24.7575 43.9243 24.6229 43.7896C24.4882 43.655 24.4126 43.4723 24.4126 43.2819V24.7572C24.4126 24.6544 24.3923 24.5526 24.353 24.4577C24.3136 24.3627 24.256 24.2764 24.1833 24.2038C24.1107 24.1311 24.0244 24.0734 23.9294 24.0341C23.8345 23.9948 23.7327 23.9745 23.6299 23.9745H5.74422C5.53665 23.9745 5.33758 24.057 5.19081 24.2038C5.04404 24.3505 4.96158 24.5496 4.96158 24.7572V43.2819C4.96158 43.4723 4.88594 43.655 4.75128 43.7896C4.61663 43.9243 4.434 43.9999 4.24357 43.9999C4.05314 43.9999 3.87051 43.9243 3.73586 43.7896C3.60121 43.655 3.52556 43.4723 3.52556 43.2819V24.7572C3.52745 24.1693 3.76181 23.6061 4.17748 23.1904C4.59315 22.7748 5.15638 22.5404 5.74422 22.5385H23.6945C24.2711 22.5571 24.8179 22.7988 25.2197 23.2127C25.6216 23.6266 25.847 24.1803 25.8486 24.7572V43.2819C25.8486 43.4723 25.7729 43.655 25.6383 43.7896C25.5036 43.9243 25.321 43.9999 25.1306 43.9999Z" fill="white"/>
<path id="Vector_2" d="M40.5245 43.9999C40.3341 43.9999 40.1514 43.9242 40.0168 43.7896C39.8821 43.6549 39.8065 43.4723 39.8065 43.2819V31.3341C39.8065 31.1247 39.7233 30.9238 39.5751 30.7757C39.427 30.6275 39.2261 30.5443 39.0167 30.5443H25.8483V43.2819C25.8483 43.4723 25.7727 43.6549 25.638 43.7896C25.5033 43.9242 25.3207 43.9999 25.1303 43.9999C24.9399 43.9999 24.7572 43.9242 24.6226 43.7896C24.4879 43.6549 24.4123 43.4723 24.4123 43.2819V29.8479C24.4123 29.6574 24.4879 29.4748 24.6226 29.3401C24.7572 29.2055 24.9399 29.1298 25.1303 29.1298H39.0167C39.607 29.1298 40.1731 29.3644 40.5906 29.7818C41.008 30.1992 41.2425 30.7654 41.2425 31.3557V43.2819C41.2425 43.4723 41.1669 43.6549 41.0322 43.7896C40.8975 43.9242 40.7149 43.9999 40.5245 43.9999ZM16.7295 23.9745C16.5463 23.9748 16.37 23.9051 16.2365 23.7797C16.103 23.6542 16.0225 23.4824 16.0115 23.2996L15.2217 10.8492H10.9136L10.1238 23.2996C10.1177 23.3939 10.0931 23.486 10.0513 23.5708C10.0096 23.6556 9.95152 23.7313 9.88052 23.7936C9.80951 23.856 9.72692 23.9037 9.63746 23.9341C9.548 23.9645 9.45343 23.977 9.35914 23.9709C9.26485 23.9648 9.17269 23.9401 9.08792 23.8984C9.00315 23.8567 8.92743 23.7986 8.86509 23.7276C8.80275 23.6566 8.75501 23.574 8.72459 23.4846C8.69417 23.3951 8.68167 23.3005 8.68779 23.2062L9.54941 10.0881C9.5604 9.90528 9.64087 9.73353 9.77436 9.60806C9.90784 9.48259 10.0842 9.41288 10.2674 9.41321H15.8966C16.0798 9.41288 16.2562 9.48259 16.3897 9.60806C16.5232 9.73353 16.6037 9.90528 16.6147 10.0881L17.4476 23.2062C17.4544 23.3011 17.4423 23.3965 17.4119 23.4866C17.3816 23.5768 17.3336 23.6601 17.2708 23.7316C17.208 23.8031 17.1316 23.8613 17.0461 23.903C16.9606 23.9448 16.8676 23.969 16.7726 23.9745H16.7295Z" fill="white"/>
<path id="Vector_3" d="M43.7988 44H0.718013C0.527584 44 0.344955 43.9244 0.210301 43.7897C0.0756475 43.655 0 43.4724 0 43.282C0 43.0916 0.0756475 42.9089 0.210301 42.7743C0.344955 42.6396 0.527584 42.564 0.718013 42.564H43.7988C43.9892 42.564 44.1718 42.6396 44.3065 42.7743C44.4412 42.9089 44.5168 43.0916 44.5168 43.282C44.5168 43.4724 44.4412 43.655 44.3065 43.7897C44.1718 43.9244 43.9892 44 43.7988 44ZM32.8275 30.566C32.6371 30.566 32.4545 30.4903 32.3198 30.3557C32.1852 30.221 32.1095 30.0384 32.1095 29.848V16.5504H16.7297C16.5393 16.5504 16.3566 16.4747 16.222 16.3401C16.0873 16.2054 16.0117 16.0228 16.0117 15.8324C16.0117 15.6419 16.0873 15.4593 16.222 15.3246C16.3566 15.19 16.5393 15.1143 16.7297 15.1143H32.8275C33.018 15.1143 33.2006 15.19 33.3353 15.3246C33.4699 15.4593 33.5456 15.6419 33.5456 15.8324V29.848C33.5456 30.0384 33.4699 30.221 33.3353 30.3557C33.2006 30.4903 33.018 30.566 32.8275 30.566ZM22.6246 8.88199C22.0558 8.88196 21.4932 8.76461 20.9719 8.5373C20.4505 8.30998 19.9816 7.97757 19.5946 7.56085C18.6794 7.94484 17.6523 7.96538 16.7225 7.61829C16.4446 7.9796 16.0866 8.27143 15.6766 8.47078C15.2667 8.67014 14.8161 8.77158 14.3603 8.76711C14.1698 8.76711 13.9872 8.69146 13.8525 8.55681C13.7179 8.42215 13.6422 8.23952 13.6422 8.04909C13.6422 7.85867 13.7179 7.67604 13.8525 7.54138C13.9872 7.40673 14.1698 7.33108 14.3603 7.33108C14.6582 7.33239 14.9497 7.245 15.1978 7.08005C15.4458 6.9151 15.6392 6.68006 15.7532 6.40485C15.7933 6.31043 15.8531 6.22569 15.9286 6.15634C16.0042 6.08698 16.0937 6.03461 16.1912 6.00276C16.2893 5.96996 16.3934 5.95875 16.4962 5.9699C16.5991 5.98106 16.6983 6.01431 16.7871 6.06738C17.1791 6.3157 17.6335 6.44754 18.0975 6.44754C18.5615 6.44754 19.0159 6.3157 19.4079 6.06738C19.5665 5.96639 19.7583 5.93163 19.9423 5.97057C20.1262 6.0095 20.2875 6.11902 20.3916 6.2756C20.6506 6.66147 21.0051 6.97372 21.4205 7.18199C21.836 7.39026 22.2983 7.48745 22.7624 7.4641C23.2266 7.44076 23.6768 7.29768 24.0692 7.04877C24.4617 6.79987 24.783 6.45363 25.002 6.04372C25.221 5.63382 25.3302 5.17421 25.3189 4.70961C25.3076 4.24501 25.1763 3.79124 24.9377 3.39245C24.6991 2.99365 24.3613 2.6634 23.9572 2.43384C23.5531 2.20427 23.0965 2.0832 22.6318 2.08241C22.0578 2.08744 21.5 2.27336 21.0378 2.61374C20.8864 2.72352 20.6982 2.76994 20.5132 2.74313C20.3282 2.71631 20.1609 2.61837 20.0469 2.47014C19.7457 2.06463 19.3278 1.7609 18.8491 1.59965C18.3704 1.4384 17.8538 1.42735 17.3687 1.56798C16.8835 1.7086 16.453 1.99418 16.1347 2.38643C15.8164 2.77867 15.6257 3.25884 15.5881 3.76256C15.5788 3.86476 15.5477 3.96379 15.4969 4.05297C15.4461 4.14214 15.3768 4.2194 15.2937 4.27953C15.2096 4.34 15.1135 4.38157 15.0119 4.4014C14.9102 4.42123 14.8055 4.41885 14.7049 4.39441C14.5933 4.35555 14.4777 4.32907 14.3603 4.31543C13.9604 4.31543 13.5768 4.47429 13.2941 4.75706C13.0113 5.03983 12.8524 5.42335 12.8524 5.82326C12.8524 6.01368 12.7768 6.19631 12.6421 6.33097C12.5075 6.46562 12.3248 6.54127 12.1344 6.54127C11.944 6.54127 11.7614 6.46562 11.6267 6.33097C11.4921 6.19631 11.4164 6.01368 11.4164 5.82326C11.418 5.05533 11.7189 4.31827 12.2551 3.7686C12.7914 3.21893 13.5208 2.89995 14.2885 2.8794C14.4662 2.22702 14.8102 1.63193 15.2869 1.15238C15.7635 0.672823 16.3565 0.32522 17.0078 0.143579C17.6591 -0.0380625 18.3464 -0.0475207 19.0025 0.11613C19.6585 0.27978 20.2609 0.610933 20.7506 1.07719C21.3293 0.77579 21.9721 0.618172 22.6246 0.617662C23.6907 0.662112 24.6984 1.1169 25.437 1.88697C26.1756 2.65703 26.5881 3.68278 26.5881 4.74983C26.5881 5.81687 26.1756 6.84262 25.437 7.61269C24.6984 8.38275 23.6907 8.83754 22.6246 8.88199Z" fill="white"/>
<path id="Vector_4" d="M19.6448 4.81073C19.4673 4.8118 19.2957 4.74709 19.1631 4.62908C19.0305 4.51107 18.9464 4.34812 18.9268 4.17169C18.8236 3.60699 18.908 3.02401 19.1674 2.51186C19.4267 1.9997 19.8466 1.58655 20.3629 1.33554C20.4505 1.29926 20.5445 1.2807 20.6393 1.28093C20.7342 1.28117 20.828 1.30019 20.9155 1.33691C21.0029 1.37363 21.0823 1.42731 21.1488 1.49486C21.2154 1.56241 21.268 1.64248 21.3035 1.73045C21.3731 1.90399 21.3724 2.09787 21.3013 2.27085C21.2302 2.44383 21.0945 2.58226 20.9229 2.65669C20.6899 2.79577 20.5085 3.00693 20.4062 3.25824C20.3039 3.50955 20.2861 3.78735 20.3557 4.04963C20.3656 4.14346 20.357 4.23833 20.3303 4.32882C20.3035 4.4193 20.2592 4.50363 20.1999 4.57698C20.1405 4.65034 20.0673 4.71127 19.9844 4.75631C19.9015 4.80134 19.8105 4.82959 19.7166 4.83945L19.6448 4.81073ZM16.4066 7.40275C16.2888 7.40216 16.1729 7.37257 16.0691 7.31659C15.9037 7.22307 15.7821 7.06777 15.7309 6.88473C15.6798 6.70169 15.7033 6.50583 15.7963 6.34009C15.9761 5.96462 16.0786 5.55686 16.0979 5.14101C16.103 5.04672 16.1268 4.95437 16.1676 4.86925C16.2085 4.78412 16.2657 4.70787 16.3361 4.64487C16.4064 4.58186 16.4885 4.53332 16.5776 4.50203C16.6667 4.47074 16.7611 4.4573 16.8554 4.46249C16.9497 4.46768 17.042 4.49138 17.1271 4.53226C17.2123 4.57313 17.2885 4.63037 17.3515 4.70071C17.4145 4.77106 17.4631 4.85312 17.4943 4.94222C17.5256 5.03131 17.5391 5.1257 17.5339 5.21999C17.5041 5.84962 17.3427 6.46601 17.06 7.02938C16.9963 7.14598 16.9015 7.24261 16.7861 7.30853C16.6708 7.37444 16.5394 7.40706 16.4066 7.40275ZM35.635 7.94126C35.2063 7.94145 34.7817 7.8565 34.3861 7.69134C33.9904 7.52618 33.6315 7.28409 33.3302 6.97912C32.8897 7.14658 32.4168 7.211 31.9476 7.16744C31.4784 7.12388 31.0254 6.9735 30.6233 6.72782C30.4607 6.6295 30.3438 6.47078 30.298 6.28641C30.2523 6.10204 30.2814 5.90705 30.3791 5.74414C30.4266 5.6615 30.4901 5.58915 30.5659 5.53131C30.6416 5.47346 30.7282 5.43128 30.8204 5.40722C30.9126 5.38315 31.0087 5.3777 31.1031 5.39117C31.1974 5.40464 31.2882 5.43676 31.37 5.48566C31.6334 5.65143 31.9383 5.73938 32.2496 5.73938C32.5608 5.73938 32.8657 5.65143 33.1291 5.48566C33.2868 5.38398 33.4781 5.34809 33.662 5.38567C33.8458 5.42324 34.0076 5.5313 34.1128 5.6867C34.2916 5.94532 34.534 6.15354 34.8166 6.29131C35.0992 6.42908 35.4125 6.49175 35.7264 6.47328C36.0403 6.45482 36.3441 6.35584 36.6086 6.18589C36.8731 6.01593 37.0894 5.78073 37.2366 5.50293C37.3839 5.22512 37.4571 4.91409 37.4492 4.59978C37.4414 4.28547 37.3527 3.97848 37.1918 3.70838C37.0309 3.43828 36.8031 3.21417 36.5304 3.05763C36.2578 2.9011 35.9494 2.81742 35.635 2.81465C35.2469 2.81618 34.8694 2.942 34.558 3.17366C34.4058 3.28267 34.217 3.32792 34.0319 3.29975C33.8468 3.27158 33.68 3.17223 33.5671 3.02287C33.3629 2.75288 33.0815 2.5512 32.7603 2.44448C32.439 2.33777 32.0929 2.33103 31.7677 2.42516C31.4425 2.51929 31.1535 2.70987 30.9389 2.97171C30.7244 3.23355 30.5943 3.55433 30.5658 3.89167C30.5494 4.08104 30.4585 4.25617 30.3132 4.37865C30.1678 4.50114 29.9798 4.56098 29.7904 4.54506C29.601 4.52862 29.4259 4.43776 29.3034 4.29239C29.1809 4.14703 29.1211 3.95903 29.137 3.76961C29.185 3.1978 29.3904 2.65045 29.7304 2.18817C30.0703 1.72588 30.5316 1.3667 31.0631 1.15038C31.5945 0.934071 32.1755 0.869071 32.7417 0.96258C33.3078 1.05609 33.8371 1.30446 34.2708 1.68019C34.6975 1.4798 35.1635 1.3768 35.635 1.37862C36.5014 1.37862 37.3324 1.72282 37.9451 2.33549C38.5578 2.94817 38.902 3.77913 38.902 4.64558C38.902 5.51203 38.5578 6.343 37.9451 6.95567C37.3324 7.56834 36.5014 7.91254 35.635 7.91254V7.94126Z" fill="white"/>
<path id="Vector_5" d="M33.409 4.9041C33.2304 4.90499 33.0579 4.83928 32.9251 4.71979C32.7923 4.6003 32.7089 4.43561 32.691 4.25789C32.6099 3.79961 32.6794 3.32739 32.8891 2.91191C33.0987 2.49642 33.4374 2.16002 33.8542 1.95306C34.0294 1.87213 34.2296 1.86411 34.4107 1.93076C34.5918 1.99742 34.739 2.13329 34.8199 2.30848C34.9009 2.48368 34.9089 2.68385 34.8422 2.86495C34.7756 3.04606 34.6397 3.19328 34.4645 3.27421C34.3999 3.27421 34.0983 3.50397 34.163 4.1071C34.1729 4.20093 34.1643 4.2958 34.1375 4.38629C34.1108 4.47677 34.0665 4.5611 34.0071 4.63446C33.9478 4.70781 33.8746 4.76874 33.7916 4.81378C33.7087 4.85881 33.6178 4.88707 33.5239 4.89692L33.409 4.9041ZM16.0762 13.6926H10.088C9.89755 13.6926 9.71492 13.6169 9.58027 13.4823C9.44561 13.3476 9.36997 13.165 9.36997 12.9746C9.36997 12.7841 9.44561 12.6015 9.58027 12.4669C9.71492 12.3322 9.89755 12.2566 10.088 12.2566H16.0762C16.2666 12.2566 16.4493 12.3322 16.5839 12.4669C16.7186 12.6015 16.7942 12.7841 16.7942 12.9746C16.7942 13.165 16.7186 13.3476 16.5839 13.4823C16.4493 13.6169 16.2666 13.6926 16.0762 13.6926ZM8.87454 31.3342C8.68411 31.3342 8.50148 31.2585 8.36683 31.1239C8.23217 30.9892 8.15652 30.8066 8.15652 30.6161V28.4621C8.15652 28.2717 8.23217 28.089 8.36683 27.9544C8.50148 27.8197 8.68411 27.7441 8.87454 27.7441C9.06497 27.7441 9.2476 27.8197 9.38225 27.9544C9.5169 28.089 9.59255 28.2717 9.59255 28.4621V30.6161C9.59255 30.8066 9.5169 30.9892 9.38225 31.1239C9.2476 31.2585 9.06497 31.3342 8.87454 31.3342ZM12.7374 31.3342C12.547 31.3342 12.3644 31.2585 12.2297 31.1239C12.0951 30.9892 12.0194 30.8066 12.0194 30.6161V28.4621C12.0194 28.2717 12.0951 28.089 12.2297 27.9544C12.3644 27.8197 12.547 27.7441 12.7374 27.7441C12.9279 27.7441 13.1105 27.8197 13.2452 27.9544C13.3798 28.089 13.4555 28.2717 13.4555 28.4621V30.6161C13.4555 30.8066 13.3798 30.9892 13.2452 31.1239C13.1105 31.2585 12.9279 31.3342 12.7374 31.3342ZM16.6004 31.3342C16.4099 31.3342 16.2273 31.2585 16.0926 31.1239C15.958 30.9892 15.8823 30.8066 15.8823 30.6161V28.4621C15.8823 28.2717 15.958 28.089 16.0926 27.9544C16.2273 27.8197 16.4099 27.7441 16.6004 27.7441C16.7908 27.7441 16.9734 27.8197 17.1081 27.9544C17.2427 28.089 17.3184 28.2717 17.3184 28.4621V30.6161C17.3184 30.8066 17.2427 30.9892 17.1081 31.1239C16.9734 31.2585 16.7908 31.3342 16.6004 31.3342ZM20.4561 31.3342C20.2657 31.3342 20.083 31.2585 19.9484 31.1239C19.8137 30.9892 19.7381 30.8066 19.7381 30.6161V28.4621C19.7381 28.2717 19.8137 28.089 19.9484 27.9544C20.083 27.8197 20.2657 27.7441 20.4561 27.7441C20.6465 27.7441 20.8291 27.8197 20.9638 27.9544C21.0985 28.089 21.1741 28.2717 21.1741 28.4621V30.6161C21.1741 30.8066 21.0985 30.9892 20.9638 31.1239C20.8291 31.2585 20.6465 31.3342 20.4561 31.3342ZM40.5245 34.7591H25.1303C24.9399 34.7591 24.7573 34.6834 24.6226 34.5488C24.488 34.4141 24.4123 34.2315 24.4123 34.0411C24.4123 33.8506 24.488 33.668 24.6226 33.5333C24.7573 33.3987 24.9399 33.323 25.1303 33.323H40.5245C40.715 33.323 40.8976 33.3987 41.0323 33.5333C41.1669 33.668 41.2426 33.8506 41.2426 34.0411C41.2426 34.2315 41.1669 34.4141 41.0323 34.5488C40.8976 34.6834 40.715 34.7591 40.5245 34.7591Z" fill="white"/>
</g>
</svg>
