<svg width="33" height="44" viewBox="0 0 33 44" fill="none" xmlns="http://www.w3.org/2000/svg">
<g id="Group 24">
<path id="Vector" d="M12.0269 22.2861H14.8062V25.0654C14.8062 25.433 14.9522 25.7855 15.2121 26.0455C15.4721 26.3054 15.8246 26.4514 16.1922 26.4514C16.5598 26.4514 16.9123 26.3054 17.1722 26.0455C17.4322 25.7855 17.5782 25.433 17.5782 25.0654V22.2861H20.3575C20.5395 22.2861 20.7198 22.2502 20.8879 22.1806C21.0561 22.1109 21.2089 22.0088 21.3376 21.8801C21.4663 21.7514 21.5684 21.5986 21.638 21.4305C21.7077 21.2623 21.7435 21.0821 21.7435 20.9001C21.7435 20.7181 21.7077 20.5378 21.638 20.3697C21.5684 20.2015 21.4663 20.0487 21.3376 19.92C21.2089 19.7913 21.0561 19.6892 20.8879 19.6196C20.7198 19.5499 20.5395 19.5141 20.3575 19.5141H17.5782V16.7348C17.5782 16.3672 17.4322 16.0146 17.1722 15.7547C16.9123 15.4948 16.5598 15.3488 16.1922 15.3488C15.8246 15.3488 15.4721 15.4948 15.2121 15.7547C14.9522 16.0146 14.8062 16.3672 14.8062 16.7348V19.5141H12.0269C11.8448 19.5141 11.6646 19.5499 11.4965 19.6196C11.3283 19.6892 11.1755 19.7913 11.0468 19.92C10.9181 20.0487 10.816 20.2015 10.7464 20.3697C10.6767 20.5378 10.6409 20.7181 10.6409 20.9001C10.6409 21.0821 10.6767 21.2623 10.7464 21.4305C10.816 21.5986 10.9181 21.7514 11.0468 21.8801C11.1755 22.0088 11.3283 22.1109 11.4965 22.1806C11.6646 22.2502 11.8448 22.2861 12.0269 22.2861Z" fill="#2E3192"/>
<path id="Vector_2" d="M26.95 5.214H22.308C22.2027 3.79895 21.5671 2.4758 20.5284 1.50912C19.4896 0.54244 18.1243 0.00347722 16.7053 0H15.6787C14.2597 0.00347722 12.8944 0.54244 11.8556 1.50912C10.8169 2.4758 10.1813 3.79895 10.076 5.214H5.434C3.99408 5.214 2.61303 5.7855 1.59417 6.80299C0.57531 7.82048 0.00194321 9.20075 0 10.6407V38.566C0 40.0072 0.572509 41.3893 1.59158 42.4084C2.61065 43.4275 3.99281 44 5.434 44H26.95C28.3912 44 29.7733 43.4275 30.7924 42.4084C31.8115 41.3893 32.384 40.0072 32.384 38.566V10.6407C32.3821 9.20075 31.8087 7.82048 30.7898 6.80299C29.771 5.7855 28.3899 5.214 26.95 5.214ZM15.6787 2.77933H16.7053C17.388 2.78225 18.0472 3.02929 18.5637 3.47581C19.0801 3.92233 19.4198 4.53887 19.5213 5.214H12.8627C12.9642 4.53887 13.3039 3.92233 13.8203 3.47581C14.3368 3.02929 14.996 2.78225 15.6787 2.77933ZM11.4473 7.986H24.6473C24.3662 8.70261 23.876 9.31805 23.2403 9.75227C22.6047 10.1865 21.8531 10.4194 21.0833 10.4207H11.2933C10.5236 10.4194 9.77197 10.1865 9.13634 9.75227C8.50072 9.31805 8.01046 8.70261 7.72933 7.986H11.4473ZM29.6047 38.566C29.6047 39.2701 29.325 39.9453 28.8271 40.4431C28.3293 40.941 27.6541 41.2207 26.95 41.2207H5.434C4.72994 41.2207 4.05471 40.941 3.55687 40.4431C3.05902 39.9453 2.77933 39.2701 2.77933 38.566V10.6407C2.78311 10.0401 2.99039 9.45863 3.36733 8.99112C3.74427 8.5236 4.2686 8.19771 4.85467 8.06667C5.18715 9.52542 6.0054 10.8279 7.17526 11.7606C8.34512 12.6933 9.79717 13.2008 11.2933 13.2H21.0907C22.5868 13.2008 24.0389 12.6933 25.2087 11.7606C26.3786 10.8279 27.1969 9.52542 27.5293 8.06667C28.1179 8.19827 28.644 8.52633 29.0212 8.99685C29.3984 9.46736 29.6042 10.0523 29.6047 10.6553V38.566Z" fill="#2E3192"/>
<path id="Vector_3" d="M23.6206 28.6H8.76323C8.57224 28.5861 8.38045 28.6117 8.19981 28.6753C8.01918 28.7388 7.85358 28.8389 7.71336 28.9693C7.57314 29.0997 7.4613 29.2576 7.38482 29.4332C7.30835 29.6087 7.26888 29.7982 7.26888 29.9896C7.26888 30.1811 7.30835 30.3706 7.38482 30.5461C7.4613 30.7217 7.57314 30.8796 7.71336 31.01C7.85358 31.1404 8.01918 31.2405 8.19981 31.304C8.38045 31.3676 8.57224 31.3932 8.76323 31.3793H23.6206C23.8115 31.3932 24.0033 31.3676 24.184 31.304C24.3646 31.2405 24.5302 31.1404 24.6704 31.01C24.8106 30.8796 24.9225 30.7217 24.999 30.5461C25.0754 30.3706 25.1149 30.1811 25.1149 29.9896C25.1149 29.7982 25.0754 29.6087 24.999 29.4332C24.9225 29.2576 24.8106 29.0997 24.6704 28.9693C24.5302 28.8389 24.3646 28.7388 24.184 28.6753C24.0033 28.6117 23.8115 28.5861 23.6206 28.6ZM23.6206 36.476H8.76323C8.57224 36.4621 8.38045 36.4877 8.19981 36.5513C8.01918 36.6148 7.85358 36.7149 7.71336 36.8453C7.57314 36.9757 7.4613 37.1336 7.38482 37.3092C7.30835 37.4847 7.26888 37.6742 7.26888 37.8656C7.26888 38.0571 7.30835 38.2466 7.38482 38.4221C7.4613 38.5977 7.57314 38.7556 7.71336 38.886C7.85358 39.0164 8.01918 39.1165 8.19981 39.18C8.38045 39.2436 8.57224 39.2692 8.76323 39.2553H23.6206C23.8115 39.2692 24.0033 39.2436 24.184 39.18C24.3646 39.1165 24.5302 39.0164 24.6704 38.886C24.8106 38.7556 24.9225 38.5977 24.999 38.4221C25.0754 38.2466 25.1149 38.0571 25.1149 37.8656C25.1149 37.6742 25.0754 37.4847 24.999 37.3092C24.9225 37.1336 24.8106 36.9757 24.6704 36.8453C24.5302 36.7149 24.3646 36.6148 24.184 36.5513C24.0033 36.4877 23.8115 36.4621 23.6206 36.476Z" fill="#2E3192"/>
</g>
</svg>
