<svg width="62" height="44" viewBox="0 0 62 44" fill="none" xmlns="http://www.w3.org/2000/svg">
<path id="Vector" d="M61.0073 29.4645C58.5542 28.9634 56.0619 28.6785 53.5591 28.613C57.079 22.456 53.1583 11.7067 52.9729 11.2073C52.7564 10.9586 52.4796 10.7698 52.1691 10.659C51.8585 10.5482 51.5248 10.5191 51.1997 10.5746C48.0298 11.6948 45.0221 13.2296 42.2548 15.139C41.5423 11.7039 39.1544 3.86677 31.807 0.112115C31.6675 0.0413338 31.5138 0.00306338 31.3574 0.00017645C31.2011 -0.00271048 31.0461 0.029861 30.9041 0.0954462C30.7621 0.029861 30.6071 -0.00271048 30.4507 0.00017645C30.2943 0.00306338 30.1407 0.0413338 30.0012 0.112115C22.6537 3.86677 20.2659 11.7039 19.5533 15.139C16.786 13.2301 13.7783 11.6958 10.6084 10.576C10.4279 10.521 10.2357 10.5164 10.0528 10.5628C9.80616 10.5031 9.54623 10.5359 9.32214 10.6549C9.09805 10.7739 8.92534 10.9709 8.83666 11.2087C8.65122 11.7081 4.73058 22.4601 8.25117 28.6151C5.7477 28.68 3.25474 28.9642 0.800905 29.4645C0.651404 29.5008 0.511723 29.5695 0.391778 29.6659C0.271833 29.7622 0.174566 29.8837 0.106883 30.0219C0.0391998 30.16 0.00275996 30.3114 0.000150768 30.4652C-0.00245843 30.619 0.0288271 30.7715 0.0917858 30.9119C6.20924 45.1429 22.1391 45.4555 30.9041 42.5287C39.6927 45.4534 55.5843 45.1485 61.7164 30.9112C61.7792 30.7709 61.8104 30.6184 61.8077 30.4647C61.8051 30.311 61.7686 30.1597 61.7009 30.0217C61.6332 29.8836 61.536 29.7621 61.4161 29.6658C61.2963 29.5695 61.1567 29.5008 61.0073 29.4645ZM17.7079 39.0512C21.7105 39.9131 24.779 40.7785 26.8598 41.4341C21.0014 42.5613 8.82346 43.2107 2.57335 31.246C7.20728 30.4667 22.9433 28.738 28.5899 39.8013C25.1618 38.6841 21.6754 37.7546 18.1462 37.0169C17.8825 36.9738 17.6123 37.0337 17.3915 37.1843C17.1707 37.3348 17.0162 37.5644 16.9599 37.8256C16.9036 38.0869 16.9499 38.3598 17.0891 38.5878C17.2283 38.8159 17.4499 38.9818 17.7079 39.0512ZM29.8373 37.7767C28.5217 35.5813 26.7173 33.7191 24.5644 32.335C19.37 28.6901 17.7177 24.3909 17.8323 24.4402C17.757 24.1744 17.5792 23.9492 17.338 23.8144C17.0968 23.6796 16.8119 23.6462 16.546 23.7214C16.2801 23.7967 16.055 23.9744 15.9202 24.2157C15.7854 24.4569 15.7519 24.7418 15.8271 25.0077C16.4469 26.7484 17.4018 28.3508 18.6379 29.7243C16.0824 29.0388 13.4537 28.6638 10.8084 28.6074C7.12741 24.5396 9.63329 15.4884 10.5153 12.7387C13.7089 13.8986 16.7232 15.5025 19.4693 17.5032C19.5902 17.6732 19.7597 17.8028 19.9555 17.8748C25.104 21.7962 30.2276 28.1442 29.8373 37.7767ZM30.8971 15.8593C30.6208 15.8593 30.3558 15.969 30.1605 16.1644C29.9651 16.3598 29.8553 16.6248 29.8553 16.9011V26.8892C27.9281 22.7951 25.0345 19.231 21.4237 16.5038C21.7855 14.3257 23.6462 5.73367 30.9041 1.99361C38.1592 5.73367 40.0226 14.3257 40.3845 16.5038C36.7643 19.2384 33.8655 22.8143 31.9389 26.9218V16.9011C31.9389 16.6248 31.8292 16.3598 31.6338 16.1644C31.4384 15.969 31.1734 15.8593 30.8971 15.8593ZM41.8506 17.8734C42.0464 17.8014 42.2159 17.6719 42.3368 17.5019C45.0829 15.5007 48.0974 13.8967 51.2914 12.7373C52.1749 15.4856 54.6856 24.5319 50.9976 28.6054C48.3533 28.6626 45.7254 29.0383 43.1709 29.7243C44.4066 28.3504 45.3613 26.7478 45.981 25.007C46.0518 24.7426 46.0158 24.461 45.8806 24.223C45.7455 23.985 45.5221 23.8097 45.2588 23.7351C44.9955 23.6605 44.7134 23.6924 44.4734 23.8241C44.2335 23.9558 44.055 24.1766 43.9766 24.4389C44.0877 24.3916 42.4556 28.6686 37.2452 32.3329C35.0913 33.7169 33.2863 35.5796 31.9709 37.776C31.5813 28.1442 36.7048 21.7962 41.8506 17.8762V17.8734ZM34.9588 41.4306C37.0389 40.7764 40.1032 39.9117 44.1002 39.0512C44.234 39.0224 44.3608 38.9675 44.4733 38.8898C44.5859 38.812 44.682 38.7128 44.7563 38.5979C44.8305 38.483 44.8814 38.3545 44.906 38.22C44.9306 38.0854 44.9284 37.9473 44.8996 37.8135C44.8709 37.6797 44.816 37.553 44.7382 37.4404C44.6605 37.3278 44.5613 37.2317 44.4464 37.1575C44.3314 37.0832 44.203 37.0324 44.0684 37.0078C43.9338 36.9832 43.7957 36.9853 43.662 37.0141C40.1327 37.7527 36.6463 38.6831 33.2183 39.8013C38.8655 28.738 54.6023 30.4667 59.2341 31.246C52.9965 43.1843 40.8227 42.5502 34.9588 41.4306Z" fill="#2E3192"/>
</svg>
